<?xml version="1.0" standalone="no"?>
<!DOCTYPE svg PUBLIC "-//W3C//DTD SVG 20010904//EN"
 "http://www.w3.org/TR/2001/REC-SVG-20010904/DTD/svg10.dtd">
<svg version="1.0" xmlns="http://www.w3.org/2000/svg"
 width="500.000000pt" height="500.000000pt" viewBox="0 0 500.000000 500.000000"
 preserveAspectRatio="xMidYMid meet">

<g transform="translate(0.000000,500.000000) scale(0.100000,-0.100000)"
fill="#000000" stroke="none">
<path d="M2330 4993 c-216 -15 -486 -73 -685 -145 -239 -86 -508 -239 -715
-404 -47 -38 -139 -123 -206 -189 -553 -556 -809 -1340 -694 -2123 63 -434
247 -853 526 -1202 38 -47 123 -139 189 -206 556 -553 1340 -809 2123 -694
434 63 853 247 1202 526 47 38 139 123 206 189 553 556 809 1340 694 2123 -63
434 -247 853 -526 1202 -170 212 -429 436 -673 580 -433 256 -949 379 -1441
343z m401 -204 c374 -38 733 -166 1041 -372 624 -415 1002 -1093 1025 -1837
16 -495 -113 -952 -380 -1352 -415 -624 -1093 -1002 -1837 -1025 -495 -16
-952 113 -1352 380 -624 415 -1002 1093 -1025 1837 -19 591 170 1134 549 1575
152 177 296 304 486 428 322 211 633 320 1057 370 70 9 341 6 436 -4z"/>
<path d="M2171 4054 c-29 -21 -13 -41 19 -24 12 6 33 9 46 6 39 -10 30 -46
-26 -101 -27 -27 -50 -55 -50 -62 0 -9 20 -13 75 -13 60 0 75 3 75 15 0 11
-12 15 -51 15 l-52 0 47 50 c58 62 60 92 9 119 -30 16 -65 14 -92 -5z"/>
<path d="M2364 4047 c-20 -18 -28 -35 -31 -73 -5 -43 -2 -54 22 -82 37 -44 83
-44 120 0 24 28 27 39 22 82 -5 56 -39 96 -82 96 -13 0 -36 -10 -51 -23z m80
-23 c19 -19 22 -104 4 -122 -7 -7 -21 -12 -33 -12 -33 0 -45 20 -45 71 0 48
18 79 45 79 7 0 21 -7 29 -16z"/>
<path d="M2554 4060 c-12 -5 -25 -13 -28 -19 -10 -16 12 -23 35 -11 11 7 32 9
45 6 39 -10 30 -46 -26 -101 -27 -27 -50 -55 -50 -62 0 -9 20 -13 75 -13 60 0
75 3 75 15 0 11 -12 15 -51 15 l-52 0 47 50 c25 27 46 58 46 70 0 47 -60 73
-116 50z"/>
<path d="M2740 4063 c-8 -3 -21 -10 -28 -16 -21 -16 6 -26 38 -14 15 6 34 7
44 4 31 -12 18 -51 -34 -102 -27 -27 -50 -55 -50 -62 0 -9 20 -13 75 -13 60 0
75 3 75 15 0 11 -12 15 -45 15 -25 0 -45 3 -45 6 0 4 18 26 40 50 22 24 40 53
40 64 0 44 -59 72 -110 53z"/>
<path d="M1320 3960 c0 -20 7 -20 360 -20 353 0 360 0 360 20 0 20 -7 20 -360
20 -353 0 -360 0 -360 -20z"/>
<path d="M2960 3960 c0 -20 7 -20 360 -20 353 0 360 0 360 20 0 20 -7 20 -360
20 -353 0 -360 0 -360 -20z"/>
<path d="M1355 3555 c-14 -13 -25 -30 -25 -37 1 -83 109 -118 145 -47 41 79
-57 148 -120 84z m89 -11 c22 -22 20 -57 -5 -80 -19 -17 -23 -17 -47 -3 -34
18 -42 67 -16 86 24 17 49 16 68 -3z"/>
<path d="M1540 3505 c0 -72 15 -105 22 -47 2 22 8 28 36 30 17 2 32 7 32 12 0
5 -15 10 -32 12 -25 2 -33 8 -33 23 0 16 8 21 38 23 55 5 45 22 -13 22 l-50 0
0 -75z"/>
<path d="M1692 3508 c2 -46 7 -73 16 -76 8 -2 12 7 12 27 0 29 3 31 35 31 19
0 35 5 35 10 0 6 -16 10 -35 10 -31 0 -35 3 -35 25 0 23 4 25 40 25 22 0 40 5
40 10 0 6 -25 10 -55 10 l-56 0 3 -72z"/>
<path d="M1850 3505 c0 -43 4 -75 10 -75 6 0 10 32 10 75 0 43 -4 75 -10 75
-6 0 -10 -32 -10 -75z"/>
<path d="M1952 3560 c-62 -58 13 -160 89 -119 28 15 14 31 -16 17 -53 -24
-100 46 -57 85 21 19 57 22 67 7 4 -6 11 -7 17 -4 16 10 -21 34 -52 34 -14 0
-36 -9 -48 -20z"/>
<path d="M2110 3505 c0 -43 4 -75 10 -75 6 0 10 32 10 75 0 43 -4 75 -10 75
-6 0 -10 -32 -10 -75z"/>
<path d="M2211 3508 c-31 -70 -33 -104 -4 -60 11 15 25 22 48 22 23 0 37 -7
48 -22 8 -13 18 -20 21 -17 10 10 -55 149 -69 149 -7 0 -26 -32 -44 -72z m69
-10 c0 -5 -11 -8 -25 -8 -29 0 -29 0 -13 35 l12 26 13 -23 c7 -13 12 -26 13
-30z"/>
<path d="M2380 3505 l0 -75 44 0 c55 0 70 18 19 22 l-38 3 -3 63 c-4 88 -22
78 -22 -13z"/>
<path d="M2600 3505 c0 -43 4 -75 10 -75 6 0 10 20 10 45 0 25 3 45 8 45 4 0
16 -16 26 -35 11 -19 22 -35 25 -35 4 0 15 16 25 35 26 47 36 44 36 -10 0 -25
5 -45 10 -45 6 0 10 32 10 75 0 41 -4 75 -10 75 -5 0 -21 -20 -36 -45 -14 -25
-29 -45 -33 -45 -3 0 -18 20 -33 45 -15 25 -32 45 -38 45 -6 0 -10 -30 -10
-75z"/>
<path d="M2820 3505 l0 -75 55 0 c30 0 55 5 55 10 0 6 -18 10 -40 10 -36 0
-40 3 -40 25 0 22 4 25 35 25 19 0 35 5 35 10 0 6 -16 10 -35 10 -28 0 -35 4
-35 20 0 17 7 20 41 20 24 0 38 4 34 10 -3 6 -28 10 -56 10 l-49 0 0 -75z"/>
<path d="M2982 3508 c3 -81 20 -98 28 -29 l5 45 20 -37 c11 -20 23 -37 26 -37
4 0 18 17 31 38 l23 37 3 -47 c5 -77 22 -55 22 27 0 41 -4 75 -9 75 -5 0 -23
-23 -39 -51 l-29 -51 -29 51 c-42 73 -56 68 -52 -21z"/>
<path d="M3202 3508 l3 -73 36 -3 c48 -4 89 13 89 37 0 11 -5 23 -10 26 -6 3
-7 17 -4 31 10 37 -11 54 -68 54 l-49 0 3 -72z m93 32 c0 -10 -12 -16 -32 -18
-28 -3 -33 0 -33 18 0 18 5 21 33 18 20 -2 32 -8 32 -18z m-1 -46 c37 -14 10
-44 -40 -44 -19 0 -24 5 -24 25 0 20 5 25 24 25 13 0 31 -3 40 -6z"/>
<path d="M3390 3505 l0 -75 50 0 c28 0 50 5 50 10 0 6 -18 10 -40 10 -36 0
-40 3 -40 25 0 22 4 25 35 25 19 0 35 5 35 10 0 6 -16 10 -35 10 -28 0 -35 4
-35 20 0 17 7 20 40 20 22 0 40 5 40 10 0 6 -22 10 -50 10 l-50 0 0 -75z"/>
<path d="M3550 3505 c0 -43 4 -75 10 -75 6 0 10 11 10 25 0 34 32 33 58 -2 23
-31 40 -26 22 6 -8 17 -8 26 5 43 19 29 19 34 -5 58 -13 13 -33 20 -60 20
l-40 0 0 -75z m78 46 c25 -16 9 -46 -26 -49 -30 -3 -32 -1 -32 27 0 26 4 31
23 31 12 0 28 -4 35 -9z"/>
<path d="M2588 2837 c-54 -11 -98 -23 -98 -28 0 -5 6 -9 14 -9 8 0 22 -10 30
-22 14 -19 16 -65 16 -301 0 -255 1 -278 18 -285 9 -4 69 -7 132 -7 99 0 121
3 155 22 90 48 120 106 120 235 0 91 -2 99 -30 139 -43 61 -86 81 -160 76 -33
-2 -68 -7 -77 -11 -16 -7 -18 2 -20 101 l-3 109 -97 -19z m207 -253 c31 -34
45 -82 45 -160 0 -124 -47 -214 -113 -214 l-34 0 -5 193 c-3 105 -4 195 -1
200 2 4 22 7 44 7 30 0 46 -6 64 -26z"/>
<path d="M1160 2831 c0 -4 15 -12 33 -17 57 -17 62 -40 62 -299 0 -259 -5
-283 -62 -300 -18 -5 -33 -13 -33 -17 0 -4 79 -8 175 -8 172 0 212 7 138 26
-52 12 -62 39 -65 170 l-3 109 25 3 c13 2 40 -1 61 -7 28 -8 40 -20 54 -51 10
-22 22 -40 27 -40 4 0 8 50 8 110 0 115 -9 136 -34 76 -18 -43 -42 -56 -100
-56 l-46 0 0 68 c0 37 3 97 7 135 l6 67 68 0 c105 0 143 -23 180 -107 13 -32
22 -41 34 -37 9 4 14 13 11 21 -3 8 -6 48 -6 89 l0 74 -270 0 c-148 0 -270 -4
-270 -9z"/>
<path d="M1797 2654 c-136 -43 -197 -222 -125 -363 36 -69 90 -102 177 -109
92 -6 147 14 199 74 99 112 77 309 -43 380 -56 33 -140 40 -208 18z m126 -44
c34 -40 51 -125 45 -230 -8 -138 -45 -196 -108 -170 -47 20 -64 69 -68 199 -2
70 1 131 9 158 21 75 78 96 122 43z"/>
<path d="M2218 2647 c-54 -11 -98 -23 -98 -28 0 -5 6 -9 14 -9 8 0 22 -10 30
-22 13 -18 16 -54 16 -184 0 -143 -2 -163 -18 -177 -10 -10 -24 -17 -30 -17
-7 0 -12 -4 -12 -10 0 -6 53 -10 140 -10 87 0 140 4 140 10 0 6 -9 10 -20 10
-11 0 -29 9 -40 20 -18 18 -20 33 -20 159 0 111 3 141 15 151 18 15 86 15 112
1 16 -8 22 -2 42 51 19 50 21 62 10 69 -39 25 -118 -5 -154 -59 l-24 -35 -3
49 -3 50 -97 -19z"/>
<path d="M3187 2657 c-136 -44 -200 -220 -129 -358 39 -78 92 -112 182 -117
81 -5 129 9 176 50 36 32 37 57 1 33 -62 -40 -161 -24 -208 35 -27 33 -54 124
-43 142 3 5 69 8 146 8 l141 0 -6 51 c-12 97 -73 157 -169 165 -29 2 -70 -2
-91 -9z m97 -36 c16 -18 39 -118 29 -133 -2 -5 -35 -8 -74 -8 -65 0 -69 1 -69
23 0 62 44 137 80 137 9 0 25 -8 34 -19z"/>
<path d="M3626 2659 c-52 -12 -90 -42 -110 -83 -40 -86 -9 -142 109 -196 95
-44 116 -70 93 -118 -39 -80 -141 -56 -192 46 -26 51 -37 39 -34 -35 l3 -67
45 -14 c68 -20 197 -12 242 16 42 26 68 75 68 127 0 64 -22 90 -114 134 -116
55 -142 96 -91 146 45 46 106 22 146 -57 28 -54 44 -38 35 35 -8 61 -8 61
-106 71 -30 3 -72 1 -94 -5z"/>
<path d="M1260 1499 c0 -308 3 -390 13 -387 9 4 13 93 15 391 2 340 0 387 -13
387 -13 0 -15 -49 -15 -391z"/>
<path d="M1660 1705 l0 -115 63 0 c49 0 68 4 80 18 23 25 22 69 -3 84 -17 11
-18 14 -4 29 23 25 14 71 -16 86 -14 7 -46 13 -72 13 l-48 0 0 -115z m104 85
c52 -19 26 -70 -36 -70 -38 0 -38 0 -38 40 0 36 3 40 24 40 14 0 36 -4 50 -10z
m-1 -99 c30 -12 40 -36 27 -62 -8 -14 -21 -19 -55 -19 l-45 0 0 45 c0 41 2 45
24 45 14 0 36 -4 49 -9z"/>
<path d="M2192 1808 c6 -18 28 -21 28 -4 0 9 -7 16 -16 16 -9 0 -14 -5 -12
-12z"/>
<path d="M1862 1683 c3 -73 5 -78 31 -93 25 -14 30 -13 57 2 17 9 30 13 30 8
0 -6 5 -10 10 -10 6 0 10 35 10 85 0 50 -4 85 -10 85 -6 0 -10 -27 -10 -60 0
-65 -21 -100 -60 -100 -28 0 -40 30 -40 99 0 36 -4 61 -10 61 -7 0 -10 -28 -8
-77z"/>
<path d="M2052 1748 c-6 -6 -12 -23 -12 -35 0 -18 10 -28 44 -43 52 -22 62
-35 45 -56 -10 -12 -23 -14 -51 -10 -42 7 -53 -10 -13 -20 30 -8 75 7 89 29
15 23 -1 47 -50 72 -53 28 -52 50 4 50 23 0 41 4 39 10 -5 15 -80 18 -95 3z"/>
<path d="M2190 1675 c0 -69 3 -85 15 -85 12 0 15 16 15 85 0 69 -3 85 -15 85
-12 0 -15 -16 -15 -85z"/>
<path d="M2270 1676 c0 -51 4 -86 10 -86 6 0 10 28 10 63 0 70 10 87 52 87 36
0 48 -24 48 -94 0 -31 5 -56 10 -56 6 0 10 29 10 68 0 54 -4 72 -18 85 -20 19
-59 22 -82 7 -9 -5 -19 -5 -27 2 -10 8 -13 -7 -13 -76z"/>
<path d="M2470 1740 c-27 -27 -28 -110 -2 -132 24 -22 56 -30 86 -22 39 9 32
26 -8 19 -27 -6 -39 -2 -55 14 -38 38 -28 51 39 51 57 0 60 1 60 25 0 34 -33
65 -70 65 -17 0 -39 -9 -50 -20z m91 -27 c8 -22 6 -23 -41 -23 -54 0 -55 1
-39 31 15 28 69 22 80 -8z"/>
<path d="M2632 1748 c-6 -6 -12 -23 -12 -36 0 -18 10 -28 45 -43 31 -14 45
-26 45 -39 0 -22 -37 -36 -69 -25 -12 3 -21 2 -21 -4 0 -31 93 -22 111 11 16
29 4 47 -46 69 -61 27 -59 54 3 54 23 0 41 4 39 10 -5 15 -80 18 -95 3z"/>
<path d="M2776 1745 c-9 -9 -16 -22 -16 -29 0 -16 29 -42 57 -50 63 -20 47
-72 -19 -62 -48 8 -51 -11 -3 -20 45 -8 85 16 85 51 0 20 -10 29 -47 47 -60
29 -64 53 -8 54 54 1 61 18 9 22 -28 2 -47 -2 -58 -13z"/>
<path d="M2640 1315 c0 -77 4 -125 10 -125 6 0 10 48 10 125 0 77 -4 125 -10
125 -6 0 -10 -48 -10 -125z"/>
<path d="M2566 1423 c-11 -11 -6 -23 9 -23 8 0 15 4 15 9 0 13 -16 22 -24 14z"/>
<path d="M1685 1396 c-46 -46 -42 -156 8 -191 24 -17 112 -21 122 -5 4 6 -13
10 -44 10 -42 0 -53 4 -70 26 -28 36 -28 102 0 139 19 24 27 26 70 23 34 -2
49 1 49 10 0 8 -18 12 -55 12 -46 0 -60 -4 -80 -24z"/>
<path d="M1895 1360 c-42 -16 -59 -61 -44 -115 25 -90 149 -68 149 26 0 51 -8
67 -41 84 -31 17 -36 17 -64 5z m49 -20 c33 -12 45 -69 22 -105 -21 -31 -70
-35 -86 -6 -18 35 -12 88 12 105 27 19 21 18 52 6z"/>
<path d="M2278 1356 c-16 -8 -28 -11 -28 -5 0 5 -4 9 -10 9 -6 0 -10 -35 -10
-85 0 -50 4 -85 10 -85 6 0 10 22 10 49 0 88 31 127 80 101 17 -9 20 -21 20
-80 0 -40 4 -70 10 -70 6 0 10 31 10 74 0 66 -3 77 -22 90 -28 20 -36 20 -70
2z"/>
<path d="M2459 1359 c-49 -18 -65 -96 -28 -143 16 -20 29 -26 60 -26 21 0 39
5 39 10 0 6 -15 10 -34 10 -41 0 -60 21 -60 67 0 44 31 73 69 66 15 -3 25 -1
25 6 0 6 -4 11 -9 11 -5 0 -15 2 -23 4 -7 3 -25 0 -39 -5z"/>
<path d="M2040 1287 c0 -83 8 -97 60 -97 20 0 41 5 48 12 9 9 12 9 12 0 0 -7
5 -12 10 -12 6 0 10 35 10 85 0 50 -4 85 -10 85 -5 0 -10 -25 -10 -56 0 -70
-12 -94 -48 -94 -42 0 -52 17 -52 87 0 35 -4 63 -10 63 -6 0 -10 -31 -10 -73z"/>
<path d="M2560 1275 c0 -69 3 -85 15 -85 12 0 15 16 15 85 0 69 -3 85 -15 85
-12 0 -15 -16 -15 -85z"/>
</g>
</svg>
