<svg width="488.000000pt" height="511.000000pt" viewBox="0 0 488.000000 511.000000" xmlns="http://www.w3.org/2000/svg">
  <g transform="translate(0.000000,511.000000) scale(0.100000,-0.100000)" fill="#fefefe" stroke="none">
    <path d="M0 2555 l0 -2555 2440 0 2440 0 0 2555 0 2555 -2440 0 -2440 0 0
-2555z m2785 2226 c368 -66 672 -199 966 -422 168 -127 367 -343 493 -534 30
-44 81 -132 114 -195 116 -219 184 -429 229 -695 l18 -110 -1 -200 0 -200 -22
-130 c-13 -71 -27 -147 -33 -168 l-10 -37 -2116 2 -2117 3 -13 50 c-7 28 -22
115 -33 195 l-20 144 0 134 c0 284 58 580 167 842 88 213 219 424 373 598 247
281 533 481 869 608 133 51 213 74 366 104 167 34 232 39 450 35 l200 -3 120
-21z m-1314 -3258 l34 -8 -75 -5 c-41 -3 -77 -5 -79 -4 -4 3 58 22 75 23 6 1
27 -2 45 -6z m56 -20 c-4 -3 -10 -3 -14 0 -3 4 0 7 7 7 7 0 10 -3 7 -7z m-188
-7 c-2 -2 -15 -9 -29 -15 l-25 -12 19 15 c11 9 24 16 30 16 5 0 7 -2 5 -4z
m266 -31 c17 -14 26 -25 20 -25 -5 1 -23 12 -40 25 -16 14 -25 25 -20 25 6 -1
24 -12 40 -25z m-335 -8 c0 -2 -10 -12 -22 -23 l-23 -19 19 23 c18 21 26 27
26 19z m1296 -45 c16 -11 40 -41 53 -67 l24 -47 -6 -60 -5 -59 -27 -34 c-34
-45 -73 -65 -128 -65 l-44 0 -34 23 -34 22 -23 45 -23 45 3 57 4 56 26 39 c14
22 41 47 59 57 l34 17 46 -4 46 -4 29 -21z m322 8 c23 -10 42 -23 42 -28 0 -5
-8 -16 -18 -26 l-19 -16 -38 16 -38 16 -24 -11 -24 -11 3 -28 3 -27 57 -15
c32 -8 69 -24 84 -35 l26 -20 2 -43 1 -42 -32 -32 -32 -32 -63 -4 -63 -3 -42
27 -42 28 21 18 c12 10 23 18 25 18 2 0 18 -7 34 -16 l30 -15 36 3 36 3 11 17
11 18 -11 17 c-10 16 -29 25 -88 38 -16 3 -41 19 -57 35 l-29 28 0 34 c0 42
23 76 64 94 43 18 84 17 134 -6z m327 4 c18 -8 40 -23 49 -33 l17 -18 -27 -18
-27 -18 -19 12 c-10 6 -35 11 -56 11 l-38 0 -22 -20 -22 -21 0 -60 0 -60 25
-24 24 -25 34 0 c18 0 42 6 52 14 l20 14 29 -15 30 -16 -37 -33 -37 -34 -52 0
-53 0 -31 19 c-17 10 -41 35 -54 55 l-22 37 -5 57 -4 57 24 45 24 45 44 23
c51 26 89 28 134 6z m-979 -27 l24 -28 0 -28 0 -28 -20 -18 c-11 -10 -20 -22
-20 -27 0 -5 12 -19 27 -32 l26 -23 0 -32 0 -32 -31 -32 -32 -32 -110 -3 -110
-4 0 177 0 177 111 -4 111 -3 24 -28z m1184 -32 l0 -65 60 0 60 0 0 66 0 65
43 -3 42 -3 3 -80 c2 -44 0 -122 -3 -172 l-7 -93 -39 0 -39 0 0 70 0 70 -60 0
-60 0 0 -71 0 -70 -42 3 -43 3 -3 160 c-1 87 0 165 2 172 l5 13 41 0 40 0 0
-65z m-2080 10 l0 -45 100 0 100 0 0 45 0 46 23 -13 22 -12 -17 -4 -18 -3 0
-129 0 -129 16 -3 16 -3 -21 -19 -21 -19 0 46 0 47 -99 0 -100 0 -3 -46 -3
-46 -28 22 c-15 12 -32 31 -37 43 l-11 22 17 -22 c9 -13 23 -23 30 -23 l14 0
0 125 0 125 -13 0 c-7 0 -19 -6 -27 -12 -8 -7 -2 2 14 20 17 17 33 32 38 32 4
0 8 -20 8 -45z m325 15 c9 -16 13 -30 11 -30 -3 0 -12 14 -21 30 -9 17 -13 30
-11 30 3 0 12 -13 21 -30z m-435 16 c0 -3 -5 -8 -12 -12 l-11 -7 7 11 c7 12
16 16 16 8z m-30 -55 c-6 -12 -15 -47 -20 -79 l-9 -57 4 55 c3 56 21 117 31
107 3 -3 1 -15 -6 -26z m430 -52 c11 -40 5 -89 -17 -131 -19 -40 -25 -35 -7 7
7 19 14 57 14 85 l0 51 -15 32 -16 32 16 -20 c8 -11 20 -36 25 -56z m57 34
c-4 -3 -7 0 -7 7 0 7 3 10 7 7 3 -4 3 -10 0 -14z m-432 -77 c0 -41 -3 -69 -7
-63 -9 14 -10 99 -2 121 3 9 7 16 8 16 0 0 1 -33 1 -74z m441 -58 c-8 -29 -22
-62 -31 -73 l-15 -20 20 45 20 45 1 65 1 65 10 -37 10 -37 -16 -53z m-491 -66
c-6 -6 -25 45 -24 66 0 9 7 -1 15 -22 8 -22 12 -41 9 -44z m445 -35 c0 -2 -12
-14 -27 -28 l-28 -24 24 28 c23 25 31 32 31 24z m-395 -27 c3 -5 4 -10 1 -10
-3 0 -8 5 -11 10 -3 6 -4 10 -1 10 3 0 8 -4 11 -10z m40 -30 c3 -5 4 -10 1
-10 -3 0 -8 5 -11 10 -3 6 -4 10 -1 10 3 0 8 -4 11 -10z m271 -15 c-11 -8 -25
-15 -30 -15 -6 1 0 7 14 15 32 19 40 18 16 0z m-215 -10 l34 -16 -30 6 c-16 4
-34 11 -39 16 -14 13 -3 11 35 -6z m166 -11 c-3 -3 -12 -4 -19 -1 l-13 5 19 1
c11 1 17 -2 13 -5z m-54 -11 c-13 -2 -35 -2 -50 0 -16 2 -5 4 22 4 28 0 40 -2
28 -4z" />
    <path d="M2416 1338 l-16 -22 0 -57 0 -56 21 -27 20 -26 35 0 35 0 24 25 25
24 0 56 0 56 -16 24 -16 25 -49 0 -48 0 -15 -22z" />
    <path d="M2070 1329 l0 -40 53 3 52 3 3 29 4 29 -14 8 c-7 5 -32 9 -55 9 l-43
0 0 -41z" />
    <path d="M2070 1190 l0 -41 58 3 57 3 3 29 4 29 -14 8 c-7 5 -34 9 -60 9 l-48
0 0 -40z" />
    <path d="M1340 1255 l0 -55 100 0 100 0 0 55 0 55 -100 0 -100 0 0 -55z" />
  </g>
  <g transform="translate(0.000000,511.000000) scale(0.100000,-0.100000)" fill="#213781" stroke="none">
    <path d="M2247 4813 c-4 -3 -7 -236 -7 -516 l0 -509 -37 7 c-44 8 -270 43
-336 52 l-48 6 6 56 c3 31 11 88 16 126 5 39 16 124 24 190 7 66 26 212 40
323 15 112 24 207 20 210 -14 14 -322 -86 -427 -139 l-38 -19 0 -493 0 -492
19 -83 18 -83 -16 -52 -15 -52 -4 -632 -3 -633 231 0 231 0 -6 48 c-22 192
-38 326 -50 442 -8 74 -19 164 -24 200 -6 36 -15 115 -21 175 -5 61 -18 176
-27 258 -9 81 -14 149 -12 151 2 2 78 -7 169 -20 91 -14 189 -29 218 -33 l54
-8 9 -14 9 -14 0 -567 0 -568 14 0 13 0 12 152 c7 84 16 191 22 238 5 47 16
159 24 250 25 286 44 482 55 584 l11 98 -11 107 c-10 102 -25 261 -55 606 -8
88 -21 239 -29 335 -9 96 -18 208 -22 248 -5 67 -11 81 -27 65z" />
  </g>
  <g transform="translate(0.000000,511.000000) scale(0.100000,-0.100000)" fill="#2b75b2" stroke="none">
    <path d="M2290 4810 c0 -5 14 -10 30 -10 17 0 30 5 30 10 0 6 -13 10 -30 10
-16 0 -30 -4 -30 -10z" />
    <path d="M2500 4810 c0 -5 14 -10 30 -10 17 0 30 5 30 10 0 6 -13 10 -30 10
-16 0 -30 -4 -30 -10z" />
    <path d="M2640 4800 c0 -5 7 -10 15 -10 8 0 15 5 15 10 0 6 -7 10 -15 10 -8 0
-15 -4 -15 -10z" />
    <path d="M2720 4790 c0 -5 7 -10 15 -10 8 0 15 5 15 10 0 6 -7 10 -15 10 -8 0
-15 -4 -15 -10z" />
    <path d="M2780 4780 c0 -5 7 -10 15 -10 8 0 15 5 15 10 0 6 -7 10 -15 10 -8 0
-15 -4 -15 -10z" />
    <path d="M2830 4770 c0 -5 9 -10 20 -10 11 0 20 5 20 10 0 6 -9 10 -20 10 -11
0 -20 -4 -20 -10z" />
    <path d="M2880 4760 c0 -5 9 -10 20 -10 11 0 20 5 20 10 0 6 -9 10 -20 10 -11
0 -20 -4 -20 -10z" />
    <path d="M2930 4750 c0 -5 7 -10 15 -10 8 0 15 5 15 10 0 6 -7 10 -15 10 -8 0
-15 -4 -15 -10z" />
    <path d="M1853 4743 c4 -3 10 -3 14 0 3 4 0 7 -7 7 -7 0 -10 -3 -7 -7z" />
    <path d="M1813 4733 c4 -3 10 -3 14 0 3 4 0 7 -7 7 -7 0 -10 -3 -7 -7z" />
    <path d="M1743 4713 c4 -3 10 -3 14 0 3 4 0 7 -7 7 -7 0 -10 -3 -7 -7z" />
    <path d="M2940 4460 l0 -10 -145 0 -145 0 0 -353 c0 -195 -3 -516 -7 -715 l-6
-362 -148 0 -147 0 -5 -22 c-3 -13 -11 -79 -16 -148 -11 -118 -23 -252 -55
-575 -8 -77 -17 -152 -21 -167 l-7 -28 216 0 216 0 0 420 0 420 109 0 109 0 6
58 c3 31 11 147 16 257 6 110 17 295 25 410 14 203 35 661 35 771 l0 54 -15 0
c-8 0 -15 -4 -15 -10z" />
  </g>
  <g transform="translate(0.000000,511.000000) scale(0.100000,-0.100000)" fill="#0a4693" stroke="none">
    <path d="M2261 4757 c5 -34 15 -152 24 -262 9 -110 19 -212 22 -227 l6 -28
173 0 174 0 0 254 c0 139 3 267 6 283 l6 30 -14 2 c-7 1 -101 3 -209 6 l-195
4 7 -62z" />
    <path d="M2310 4181 c0 -11 5 -23 10 -26 l10 -6 0 25 c0 14 -4 26 -10 26 -5 0
-10 -9 -10 -19z" />
    <path d="M1773 3364 c-3 -9 -1 -64 6 -123 6 -58 18 -176 26 -261 9 -85 20
-184 25 -220 6 -36 17 -126 25 -200 8 -74 21 -189 29 -255 8 -66 16 -144 18
-172 l3 -53 175 0 176 0 -2 28 c0 15 -2 284 -3 597 l-1 570 -9 14 -9 14 -54 8
c-306 45 -376 57 -386 63 l-12 7 -7 -17z" />
  </g>
  <g transform="translate(0.000000,511.000000) scale(0.100000,-0.100000)" fill="#009772" stroke="none">
    <path d="M3760 4295 l0 -45 15 0 15 0 0 45 0 45 -15 0 -15 0 0 -45z" />
    <path d="M3750 4160 l0 -30 15 0 15 0 0 30 0 30 -15 0 -15 0 0 -30z" />
    <path d="M3740 4055 l0 -35 15 0 15 0 0 35 0 35 -15 0 -15 0 0 -35z" />
    <path d="M3730 3940 l0 -30 15 0 15 0 0 30 0 30 -15 0 -15 0 0 -30z" />
    <path d="M3720 3830 l0 -30 15 0 15 0 0 30 0 30 -15 0 -15 0 0 -30z" />
    <path d="M3710 3765 l0 -25 15 0 15 0 0 25 0 25 -15 0 -15 0 0 -25z" />
    <path d="M3700 3690 l0 -30 15 0 15 0 0 30 0 30 -15 0 -15 0 0 -30z" />
    <path d="M3690 3600 l0 -30 15 0 15 0 0 30 0 30 -15 0 -15 0 0 -30z" />
    <path d="M3680 3523 c0 -10 -3 -35 -6 -55 l-7 -38 15 0 15 0 7 38 c3 20 6 45
6 55 l0 17 -15 0 -15 0 0 -17z" />
    <path d="M3660 3375 l0 -35 15 0 15 0 0 35 0 35 -15 0 -15 0 0 -35z" />
    <path d="M3650 3295 l0 -35 15 0 15 0 0 35 0 35 -15 0 -15 0 0 -35z" />
    <path d="M3640 3205 l0 -35 15 0 15 0 0 35 0 35 -15 0 -15 0 0 -35z" />
    <path d="M3630 3120 l0 -30 15 0 15 0 0 30 0 30 -15 0 -15 0 0 -30z" />
    <path d="M4160 3110 l0 -19 -37 -11 c-77 -21 -279 -72 -303 -77 -14 -2 -34 -8
-45 -13 -31 -12 -101 -30 -120 -30 l-17 0 7 60 7 60 -15 0 -15 0 -6 -57 c-3
-32 -15 -139 -26 -238 -23 -204 -37 -536 -26 -637 l8 -68 349 0 349 0 0 181
c0 99 -5 246 -11 327 -11 150 -54 466 -67 486 -3 6 -5 21 -3 34 l2 22 -15 0
-16 0 0 -20z" />
  </g>
  <g transform="translate(0.000000,511.000000) scale(0.100000,-0.100000)" fill="#31a0c8" stroke="none">
    <path d="M2970 4740 c0 -5 7 -10 15 -10 8 0 15 5 15 10 0 6 -7 10 -15 10 -8 0
-15 -4 -15 -10z" />
    <path d="M3080 4710 c0 -5 7 -10 15 -10 8 0 15 5 15 10 0 6 -7 10 -15 10 -8 0
-15 -4 -15 -10z" />
    <path d="M3590 4475 c0 -8 7 -15 16 -15 l16 0 -12 15 c-7 8 -14 15 -16 15 -2
0 -4 -7 -4 -15z" />
    <path d="M3720 4385 c0 -8 7 -15 16 -15 l16 0 -12 15 c-7 8 -14 15 -16 15 -2
0 -4 -7 -4 -15z" />
    <path d="M3250 3830 c-33 -10 -87 -24 -185 -49 -44 -11 -88 -23 -97 -26 l-18
-7 0 27 c0 14 -4 24 -8 21 -9 -6 -13 -51 -37 -476 -8 -146 -17 -293 -21 -327
l-6 -63 -109 0 -109 0 -2 -425 -3 -425 108 0 107 0 0 158 c0 86 5 238 10 336
l10 180 13 8 c6 4 24 8 39 8 15 0 29 4 32 9 3 4 34 14 68 20 35 7 72 17 83 22
11 5 47 15 80 23 33 8 85 22 115 30 30 9 58 16 63 16 4 0 7 -9 7 -20 l0 -20
16 0 17 0 -7 78 c-8 89 -39 347 -61 507 -8 61 -20 151 -25 200 -6 50 -16 116
-22 148 l-11 57 -11 -1 c-6 0 -22 -4 -36 -9z" />
    <path d="M3400 2785 l0 -45 15 0 15 0 0 45 0 45 -15 0 -15 0 0 -45z" />
    <path d="M3410 2700 l0 -30 15 0 15 0 0 30 0 30 -15 0 -15 0 0 -30z" />
    <path d="M3420 2590 l0 -40 15 0 15 0 0 40 0 40 -15 0 -15 0 0 -40z" />
    <path d="M3430 2395 l0 -55 15 0 15 0 0 55 0 55 -15 0 -15 0 0 -55z" />
    <path d="M3440 2090 l0 -10 76 0 75 0 -6 10 -6 10 -70 0 -69 0 0 -10z" />
    <path d="M2248 2083 c7 -3 16 -2 19 1 4 3 -2 6 -13 5 l-19 -1 13 -5z" />
  </g>
  <g transform="translate(0.000000,511.000000) scale(0.100000,-0.100000)" fill="#5c3a8e" stroke="none">
    <path d="M2170 4800 c0 -5 7 -10 15 -10 8 0 15 5 15 10 0 6 -7 10 -15 10 -8 0
-15 -4 -15 -10z" />
    <path d="M2090 4790 c0 -5 7 -10 15 -10 8 0 15 5 15 10 0 6 -7 10 -15 10 -8 0
-15 -4 -15 -10z" />
    <path d="M2040 4780 c0 -5 7 -10 15 -10 8 0 15 5 15 10 0 6 -7 10 -15 10 -8 0
-15 -4 -15 -10z" />
    <path d="M1980 4770 c0 -5 7 -10 15 -10 8 0 15 5 15 10 0 6 -7 10 -15 10 -8 0
-15 -4 -15 -10z" />
    <path d="M1620 4670 l-15 -10 12 0 c6 0 15 5 18 10 8 12 4 12 -15 0z" />
    <path d="M1583 4653 c4 -3 10 -3 14 0 3 4 0 7 -7 7 -7 0 -10 -3 -7 -7z" />
    <path d="M1533 4633 c4 -3 10 -3 14 0 3 4 0 7 -7 7 -7 0 -10 -3 -7 -7z" />
    <path d="M1215 4459 c-49 -33 -97 -68 -106 -77 l-17 -17 -26 -155 c-15 -85
-31 -173 -36 -195 -5 -22 -18 -96 -29 -165 -31 -189 -59 -349 -67 -372 -3 -11
-1 -47 5 -81 19 -102 42 -246 57 -352 14 -99 41 -269 69 -435 8 -47 26 -157
40 -245 14 -88 30 -188 36 -222 l11 -63 154 0 154 0 0 10 0 10 -105 0 -105 0
0 128 0 128 30 144 30 144 0 846 0 845 -15 60 c-8 33 -14 68 -15 78 l0 17 15
0 c8 0 15 7 15 15 0 8 -1 15 -2 15 -2 0 -43 -28 -93 -61z" />
  </g>
  <g transform="translate(0.000000,511.000000) scale(0.100000,-0.100000)" fill="#d61317" stroke="none">
    <path d="M710 3999 c-64 -77 -182 -256 -234 -357 -21 -41 -55 -114 -75 -163
l-38 -89 14 -107 c7 -60 22 -191 33 -293 11 -102 31 -284 45 -405 31 -261 55
-475 55 -492 0 -7 6 -13 13 -13 l13 0 38 128 c21 70 41 138 46 152 5 14 21 66
35 115 15 50 35 117 46 150 10 33 41 134 68 225 27 91 77 255 111 365 34 110
61 216 62 235 0 29 -91 343 -162 559 l-17 53 -53 -63z" />
    <path d="M2460 1440 c0 -5 9 -10 20 -10 11 0 20 5 20 10 0 6 -9 10 -20 10 -11
0 -20 -4 -20 -10z" />
    <path d="M2763 1443 c-18 -7 -16 -23 2 -23 8 0 15 7 15 15 0 8 -1 15 -2 14 -2
0 -9 -3 -15 -6z" />
    <path d="M2800 1440 c0 -5 7 -10 15 -10 8 0 15 5 15 10 0 6 -7 10 -15 10 -8 0
-15 -4 -15 -10z" />
    <path d="M3073 1431 l-42 -19 -16 -31 -16 -31 16 0 c8 0 15 5 15 11 0 16 39
48 67 55 13 4 23 12 23 20 0 8 -1 14 -2 14 -2 0 -22 -9 -45 -19z" />
    <path d="M3610 1256 l0 -186 9 0 c5 0 11 6 13 13 2 6 4 88 4 181 l-1 169 -12
4 -13 5 0 -186z" />
    <path d="M3230 1417 c0 -8 8 -21 18 -30 20 -18 42 -22 42 -9 0 9 -25 33 -47
46 l-13 7 0 -14z" />
    <path d="M2232 1393 c2 -10 11 -19 21 -21 l19 -4 -12 21 c-13 25 -33 28 -28 4z" />
    <path d="M2346 1385 c-20 -30 -20 -35 -1 -35 8 0 15 7 15 15 0 8 5 15 10 15 6
0 10 7 10 15 0 23 -16 18 -34 -10z" />
    <path d="M2580 1398 c1 -18 25 -48 39 -48 l12 0 -16 30 c-16 30 -35 40 -35 18z" />
    <path d="M2903 1375 c-3 -9 -3 -19 1 -22 7 -7 36 16 36 28 0 15 -30 10 -37 -6z" />
    <path d="M2060 1367 l0 -12 50 0 50 0 0 13 0 12 -50 0 -50 0 0 -13z" />
    <path d="M2430 1355 c0 -8 -6 -15 -14 -15 -8 0 -18 -9 -21 -21 -8 -23 5 -42
13 -20 3 8 16 25 28 38 13 13 24 26 24 28 0 3 -7 5 -15 5 -8 0 -15 -7 -15 -15z" />
    <path d="M2500 1365 c0 -3 8 -13 19 -24 10 -10 23 -27 29 -37 6 -10 13 -16 17
-12 11 11 -5 48 -21 48 -8 0 -14 7 -14 15 0 8 -7 15 -15 15 -8 0 -15 -2 -15
-5z" />
    <path d="M2250 1340 c0 -11 5 -20 10 -20 6 0 10 9 10 20 0 11 -4 20 -10 20 -5
0 -10 -9 -10 -20z" />
    <path d="M2680 1335 c0 -14 5 -25 10 -25 6 0 10 11 10 25 0 14 -4 25 -10 25
-5 0 -10 -11 -10 -25z" />
    <path d="M3090 1344 c0 -9 5 -14 12 -12 18 6 21 28 4 28 -9 0 -16 -7 -16 -16z" />
    <path d="M3220 1335 l0 -14 15 5 c8 4 15 10 15 15 0 5 -7 9 -15 9 -8 0 -15 -7
-15 -15z" />
    <path d="M2316 1325 l-5 -15 14 0 c8 0 15 7 15 15 0 8 -4 15 -9 15 -5 0 -11
-7 -15 -15z" />
    <path d="M2153 1303 c-18 -7 -16 -23 2 -23 8 0 15 7 15 15 0 8 -1 15 -2 14 -2
0 -9 -3 -15 -6z" />
    <path d="M2810 1295 c0 -8 7 -15 15 -15 8 0 15 4 15 9 0 5 -7 11 -15 15 l-15
5 0 -14z" />
    <path d="M2686 1285 c4 -8 10 -15 15 -15 5 0 9 7 9 15 0 8 -7 15 -15 15 l-14
0 5 -15z" />
    <path d="M2860 1285 c0 -8 7 -15 15 -15 8 0 15 4 15 9 0 5 -7 11 -15 15 l-15
5 0 -14z" />
    <path d="M2920 1246 c0 -9 7 -16 16 -16 17 0 14 22 -4 28 -7 2 -12 -3 -12 -12z" />
    <path d="M2740 1241 c0 -5 7 -11 15 -15 l15 -5 0 14 c0 8 -7 15 -15 15 -8 0
-15 -4 -15 -9z" />
    <path d="M2060 1224 c0 -17 22 -14 28 4 2 7 -3 12 -12 12 -9 0 -16 -7 -16 -16z" />
    <path d="M2780 1230 c0 -5 7 -10 15 -10 8 0 15 5 15 10 0 6 -7 10 -15 10 -8 0
-15 -4 -15 -10z" />
    <path d="M3060 1215 c0 -8 7 -15 15 -15 l14 0 -5 15 c-4 8 -10 15 -15 15 -5 0
-9 -7 -9 -15z" />
    <path d="M2260 1205 c0 -8 7 -15 15 -15 l14 0 -5 15 c-4 8 -10 15 -15 15 -5 0
-9 -7 -9 -15z" />
    <path d="M2990 1195 c0 -8 5 -15 10 -15 6 0 10 7 10 15 0 8 -4 15 -10 15 -5 0
-10 -7 -10 -15z" />
    <path d="M2615 1179 c-8 -23 -1 -34 14 -24 13 8 15 45 2 45 -5 0 -13 -9 -16
-21z" />
    <path d="M2410 1175 c0 -8 7 -15 15 -15 8 0 15 -4 15 -10 0 -5 7 -10 15 -10
21 0 19 9 -7 31 -28 22 -38 24 -38 4z" />
    <path d="M3230 1175 c0 -8 7 -15 15 -15 8 0 15 4 15 9 0 5 -7 11 -15 15 l-15
5 0 -14z" />
    <path d="M2177 1173 c-12 -11 -8 -23 8 -23 8 0 15 7 15 15 0 16 -12 20 -23 8z" />
    <path d="M2326 1165 c4 -8 10 -15 15 -15 5 0 9 7 9 15 0 8 -7 15 -15 15 l-14
0 5 -15z" />
    <path d="M2693 1173 c-18 -7 -16 -23 2 -23 8 0 15 7 15 15 0 8 -1 15 -2 14 -2
0 -9 -3 -15 -6z" />
    <path d="M2930 1155 c0 -8 4 -15 9 -15 5 0 11 7 15 15 l5 15 -14 0 c-8 0 -15
-7 -15 -15z" />
    <path d="M3120 1155 c0 -8 7 -15 15 -15 8 0 15 4 15 9 0 5 -7 11 -15 15 l-15
5 0 -14z" />
    <path d="M2070 1145 l0 -15 45 0 45 0 0 15 0 15 -45 0 -45 0 0 -15z" />
    <path d="M3270 1145 c0 -8 5 -15 10 -15 6 0 10 7 10 15 0 8 -4 15 -10 15 -5 0
-10 -7 -10 -15z" />
    <path d="M3016 1135 c4 -8 10 -15 15 -15 5 0 9 7 9 15 0 8 -7 15 -15 15 l-14
0 5 -15z" />
    <path d="M2380 1102 c0 -5 11 -14 25 -20 l25 -12 0 14 c0 8 -7 17 -16 20 -22
8 -34 8 -34 -2z" />
    <path d="M2543 1103 c-7 -2 -13 -11 -13 -19 l0 -14 25 12 c39 18 28 38 -12 21z" />
    <path d="M2180 1085 l0 -14 15 5 c8 4 15 10 15 15 0 5 -7 9 -15 9 -8 0 -15 -7
-15 -15z" />
    <path d="M2860 1085 l0 -14 15 5 c8 4 15 10 15 15 0 5 -7 9 -15 9 -8 0 -15 -7
-15 -15z" />
    <path d="M3070 1091 c0 -5 7 -11 15 -15 l15 -5 0 14 c0 8 -7 15 -15 15 -8 0
-15 -4 -15 -9z" />
    <path d="M2440 1081 c0 -11 38 -21 56 -14 26 10 14 23 -21 23 -19 0 -35 -4
-35 -9z" />
    <path d="M2770 1081 c0 -10 38 -18 63 -13 33 7 17 22 -23 22 -22 0 -40 -4 -40
-9z" />
    <path d="M3120 1081 c0 -11 29 -18 53 -13 30 6 18 22 -18 22 -19 0 -35 -4 -35
-9z" />
  </g>
  <g transform="translate(0.000000,511.000000) scale(0.100000,-0.100000)" fill="#8a3173" stroke="none">
    <path d="M1025 4319 c-86 -72 -240 -226 -255 -254 l-13 -24 21 -68 c118 -379
154 -502 154 -523 -1 -14 -28 -115 -62 -225 -59 -193 -133 -439 -186 -615 -14
-47 -30 -96 -34 -110 -5 -14 -21 -65 -35 -115 -15 -49 -42 -138 -60 -197 l-33
-108 319 0 319 0 0 13 c0 8 -5 38 -10 68 -6 30 -21 126 -35 214 -14 88 -32
198 -40 245 -26 149 -64 392 -75 480 -7 46 -13 87 -15 90 -5 9 -38 231 -38
260 0 14 10 79 22 145 12 66 30 173 41 238 10 66 24 142 29 170 22 106 61 331
61 349 0 10 -3 18 -7 18 -5 0 -35 -23 -68 -51z" />
  </g>
  <g transform="translate(0.000000,511.000000) scale(0.100000,-0.100000)" fill="#089dc9" stroke="none">
    <path d="M2951 4513 c2 -137 0 -367 -5 -512 l-8 -264 23 5 c47 10 254 64 301
78 l26 8 12 -71 c7 -40 15 -79 18 -87 l5 -15 4 18 c3 10 0 46 -6 80 -23 135
-62 542 -68 720 l-6 188 -19 10 c-16 9 -110 41 -128 43 -3 1 -10 4 -15 8 -9 5
-76 21 -97 23 -3 0 -10 3 -14 8 -4 4 -12 7 -17 7 l-9 0 3 -247z" />
    <path d="M3760 4343 l0 -20 15 0 16 0 -3 15 c-2 9 -9 17 -15 20 l-13 4 0 -19z" />
    <path d="M3750 4197 l0 -24 15 0 15 0 0 24 0 23 -15 0 -15 0 0 -23z" />
    <path d="M3740 4102 l0 -29 15 0 15 0 0 29 0 28 -15 0 -15 0 0 -28z" />
    <path d="M3730 3982 l0 -29 15 0 15 0 0 29 0 28 -15 0 -15 0 0 -28z" />
    <path d="M3720 3872 l0 -29 15 0 15 0 0 29 0 28 -15 0 -15 0 0 -28z" />
    <path d="M3710 3792 l0 -19 15 0 15 0 0 19 0 18 -15 0 -15 0 0 -18z" />
    <path d="M3700 3727 l0 -24 15 0 15 0 0 24 0 23 -15 0 -15 0 0 -23z" />
    <path d="M3690 3637 l0 -24 15 0 15 0 0 24 0 23 -15 0 -15 0 0 -23z" />
    <path d="M3320 3611 c0 -17 5 -33 10 -36 l10 -6 0 35 c0 20 -4 36 -10 36 -5 0
-10 -13 -10 -29z" />
    <path d="M3680 3552 l0 -29 15 0 15 0 0 29 0 28 -15 0 -15 0 0 -28z" />
    <path d="M3330 3521 c0 -17 5 -33 10 -36 l10 -6 0 35 c0 20 -4 36 -10 36 -5 0
-10 -13 -10 -29z" />
    <path d="M3665 3465 l-6 -46 -147 3 -147 3 -3 23 c-2 12 -8 22 -14 22 l-10 0
6 -32 c14 -81 50 -399 50 -455 l1 -61 9 5 9 6 -7 -62 -7 -63 12 8 12 7 -7 -57
-6 -57 10 6 10 6 -6 -57 -7 -57 11 7 12 7 -7 -97 -6 -97 10 6 11 7 -5 -177 -6
-178 69 3 69 3 2 257 1 257 16 115 c10 63 17 132 16 153 0 21 3 37 7 34 4 -3
6 20 5 50 l-4 55 12 -7 11 -7 -7 37 -7 38 13 -8 12 -8 -7 43 -7 43 12 -8 12
-8 -7 53 -7 53 12 -8 12 -8 -7 53 -7 53 12 -8 12 -7 -8 47 -7 48 13 -8 13 -8
-7 42 -6 42 10 -6 c11 -7 13 5 4 29 -11 28 -22 17 -29 -29z" />
  </g>
  <g transform="translate(0.000000,511.000000) scale(0.100000,-0.100000)" fill="#215aa1" stroke="none">
    <path d="M2383 4813 c26 -2 67 -2 90 0 23 2 2 3 -48 3 -49 0 -68 -1 -42 -3z" />
    <path d="M2657 4788 c-4 -12 -7 -139 -7 -280 l0 -258 -170 0 -171 0 6 -87 c4
-49 13 -151 20 -228 23 -222 39 -426 39 -480 0 -41 -20 -289 -39 -475 l-4 -45
10 38 11 37 28 0 29 0 4 -17 5 -18 1 18 1 17 39 0 40 0 4 -17 5 -18 1 18 1 17
19 0 20 0 4 -17 5 -18 1 18 1 17 30 0 30 0 1 -17 1 -18 5 15 c3 8 10 18 15 21
l8 5 7 712 6 712 144 0 c78 0 144 1 145 3 1 1 4 73 7 160 l6 157 -12 -4 c-7
-3 -15 -1 -19 5 -3 6 -13 8 -21 5 -8 -3 -20 -3 -26 1 -7 5 -21 9 -32 10 -11 1
-33 5 -50 8 -16 4 -41 8 -55 10 -14 2 -39 7 -56 10 l-31 7 -6 -24z" />
    <path d="M1893 4753 c4 -3 10 -3 14 0 3 4 0 7 -7 7 -7 0 -10 -3 -7 -7z" />
    <path d="M1783 4723 c4 -3 10 -3 14 0 3 4 0 7 -7 7 -7 0 -10 -3 -7 -7z" />
    <path d="M2323 2870 c0 -25 2 -35 4 -22 2 12 2 32 0 45 -2 12 -4 2 -4 -23z" />
    <path d="M2313 2750 c0 -25 2 -35 4 -22 2 12 2 32 0 45 -2 12 -4 2 -4 -23z" />
    <path d="M2303 2635 l0 -40 4 23 c2 12 2 30 0 40 -3 9 -5 -1 -4 -23z" />
    <path d="M2292 2545 l0 -30 5 18 c2 9 2 23 0 30 -3 6 -5 -1 -5 -18z" />
    <path d="M2282 2450 c0 -19 2 -27 5 -17 2 9 2 25 0 35 -3 9 -5 1 -5 -18z" />
    <path d="M2272 2330 c0 -19 2 -27 5 -17 2 9 2 25 0 35 -3 9 -5 1 -5 -18z" />
    <path d="M2262 2210 c0 -19 2 -27 5 -17 2 9 2 25 0 35 -3 9 -5 1 -5 -18z" />
    <path d="M2251 2124 l1 -19 5 13 c3 7 2 16 -1 19 -3 4 -6 -2 -5 -13z" />
    <path d="M1862 2083 c70 -2 187 -2 260 0 73 1 16 3 -127 3 -143 0 -203 -2
-133 -3z" />
  </g>
  <g transform="translate(0.000000,511.000000) scale(0.100000,-0.100000)" fill="#00aed6" stroke="none">
    <path d="M3242 4476 c6 -163 50 -640 64 -701 2 -11 13 -93 24 -183 10 -90 23
-169 29 -176 l10 -12 145 2 145 3 3 -17 c2 -9 10 27 17 80 8 53 18 95 21 93 4
-3 5 16 2 42 l-5 46 11 -7 11 -7 -6 52 -6 52 11 -7 11 -6 -6 36 -6 37 10 -6
10 -6 -5 51 -5 51 11 -7 12 -7 -7 62 -6 62 11 -7 11 -7 -6 67 -6 67 11 -7 11
-7 -6 52 -6 52 11 -7 11 -6 -4 82 -4 82 -18 10 c-10 5 -24 16 -31 23 -22 21
-100 73 -110 73 -6 0 -12 4 -14 8 -7 19 -216 132 -316 171 l-47 19 7 -192z" />
  </g>
  <g transform="translate(0.000000,511.000000) scale(0.100000,-0.100000)" fill="#423b89" stroke="none">
    <path d="M2185 4800 l-6 -10 20 0 c12 0 21 5 21 10 0 6 -6 10 -14 10 -8 0 -18
-4 -21 -10z" />
    <path d="M2105 4790 l-6 -10 15 0 c9 0 16 5 16 10 0 6 -4 10 -9 10 -6 0 -13
-4 -16 -10z" />
    <path d="M1995 4770 l-6 -10 15 0 c9 0 16 5 16 10 0 6 -4 10 -9 10 -6 0 -13
-4 -16 -10z" />
    <path d="M1940 4760 c0 -5 7 -10 15 -10 8 0 15 5 15 10 0 6 -7 10 -15 10 -8 0
-15 -4 -15 -10z" />
    <path d="M1730 4710 l-15 -10 12 0 c6 0 15 5 18 10 8 12 4 12 -15 0z" />
    <path d="M1693 4693 c4 -3 10 -3 14 0 3 4 0 7 -7 7 -7 0 -10 -3 -7 -7z" />
    <path d="M1663 4683 c4 -3 10 -3 14 0 3 4 0 7 -7 7 -7 0 -10 -3 -7 -7z" />
    <path d="M1633 4673 c4 -3 10 -3 14 0 3 4 0 7 -7 7 -7 0 -10 -3 -7 -7z" />
    <path d="M1570 4650 l-15 -10 12 0 c6 0 15 5 18 10 8 12 4 12 -15 0z" />
    <path d="M1420 4579 c-63 -33 -116 -64 -118 -69 -2 -6 -10 -10 -18 -10 l-14 0
0 -27 c1 -16 7 -55 15 -88 l15 -60 0 -835 0 -836 -30 -144 -30 -144 0 -137 0
-137 213 -7 c116 -4 232 -5 257 -3 25 3 -19 5 -98 6 l-143 2 3 623 3 622 17
57 17 57 -19 88 -20 88 0 486 0 487 30 12 c17 7 33 17 36 21 3 5 4 9 2 9 -2 0
-55 -27 -118 -61z" />
  </g>
  <g transform="translate(0.000000,511.000000) scale(0.100000,-0.100000)" fill="#009d5d" stroke="none">
    <path d="M3780 4328 c0 -45 -51 -556 -70 -703 -40 -312 -70 -562 -77 -623 l-6
-63 26 6 c15 4 38 8 52 9 14 0 25 4 25 9 0 4 11 7 24 7 14 0 28 5 31 10 4 6
14 10 23 8 10 -1 40 6 68 15 28 10 64 20 80 22 16 3 70 16 119 29 l90 25 19
-17 19 -17 -6 25 c-4 14 -7 29 -7 33 0 5 -4 6 -9 2 l-10 -5 5 32 5 33 -36 175
c-84 403 -144 709 -151 768 l-7 62 -86 81 c-47 44 -94 85 -103 90 l-18 10 0
-23z" />
  </g>
  <g transform="translate(0.000000,511.000000) scale(0.100000,-0.100000)" fill="#4aacc4" stroke="none">
    <path d="M2278 4813 c7 -3 16 -2 19 1 4 3 -2 6 -13 5 l-19 -1 13 -5z" />
    <path d="M2558 4813 c7 -3 16 -2 19 1 4 3 -2 6 -13 5 l-19 -1 13 -5z" />
    <path d="M2668 4803 c7 -3 16 -2 19 1 4 3 -2 6 -13 5 l-19 -1 13 -5z" />
    <path d="M2748 4793 c7 -3 16 -2 19 1 4 3 -2 6 -13 5 l-19 -1 13 -5z" />
    <path d="M2803 4783 c4 -3 10 -3 14 0 3 4 0 7 -7 7 -7 0 -10 -3 -7 -7z" />
    <path d="M2863 4773 c4 -3 10 -3 14 0 3 4 0 7 -7 7 -7 0 -10 -3 -7 -7z" />
    <path d="M2913 4763 c4 -3 10 -3 14 0 3 4 0 7 -7 7 -7 0 -10 -3 -7 -7z" />
    <path d="M1883 4753 c4 -3 10 -3 14 0 3 4 0 7 -7 7 -7 0 -10 -3 -7 -7z" />
    <path d="M2953 4753 c4 -3 10 -3 14 0 3 4 0 7 -7 7 -7 0 -10 -3 -7 -7z" />
    <path d="M3023 4733 c4 -3 10 -3 14 0 3 4 0 7 -7 7 -7 0 -10 -3 -7 -7z" />
    <path d="M1773 4723 c4 -3 10 -3 14 0 3 4 0 7 -7 7 -7 0 -10 -3 -7 -7z" />
    <path d="M3063 4723 c4 -3 10 -3 14 0 3 4 0 7 -7 7 -7 0 -10 -3 -7 -7z" />
    <path d="M3183 4683 c4 -3 10 -3 14 0 3 4 0 7 -7 7 -7 0 -10 -3 -7 -7z" />
    <path d="M3253 4653 c4 -3 10 -3 14 0 3 4 0 7 -7 7 -7 0 -10 -3 -7 -7z" />
    <path d="M3625 4460 c3 -5 8 -10 11 -10 3 0 2 5 -1 10 -3 6 -8 10 -11 10 -3 0
-2 -4 1 -10z" />
    <path d="M3655 4440 c3 -5 8 -10 11 -10 3 0 2 5 -1 10 -3 6 -8 10 -11 10 -3 0
-2 -4 1 -10z" />
    <path d="M3680 4426 c0 -2 8 -10 18 -17 l17 -14 -14 18 c-13 16 -21 21 -21 13z" />
    <path d="M3760 4366 c0 -2 8 -10 18 -17 l17 -14 -14 18 c-13 16 -21 21 -21 13z" />
    <path d="M3325 2888 c-38 -11 -97 -26 -130 -34 -33 -8 -69 -18 -80 -23 -11 -5
-47 -14 -80 -21 -33 -7 -64 -16 -70 -20 -5 -4 -25 -10 -42 -12 l-33 -5 -2 11
c-5 39 -17 -162 -23 -406 l-8 -288 -301 -3 c-166 -1 -32 -3 297 -5 l597 -2 0
103 c-1 198 -26 562 -49 688 l-6 35 -70 -18z" />
  </g>
  <g transform="translate(0.000000,511.000000) scale(0.100000,-0.100000)" fill="#2e2b72" stroke="none">
    <path d="M2247 4814 c-3 -4 -30 -8 -59 -10 -65 -4 -87 -7 -195 -30 -16 -3 -36
-5 -45 -5 -10 0 -20 -4 -23 -8 -5 -9 -43 -294 -71 -531 -8 -69 -19 -152 -24
-185 -4 -33 -11 -92 -15 -130 l-7 -70 154 -23 c84 -13 179 -28 210 -34 32 -6
61 -10 65 -9 5 0 10 235 13 521 3 286 5 520 4 520 0 0 -3 -3 -7 -6z" />
  </g>
  <g transform="translate(0.000000,511.000000) scale(0.100000,-0.100000)" fill="#eb0016" stroke="none">
    <path d="M2401 1433 c-36 -18 -87 -85 -76 -102 3 -6 1 -11 -6 -11 l-11 0 4
-71 c2 -38 8 -73 13 -77 6 -4 11 -14 13 -22 5 -21 43 -60 53 -54 5 3 9 0 9 -6
0 -6 5 -8 10 -5 6 3 10 2 10 -2 0 -5 27 -9 60 -9 33 0 60 3 60 8 0 5 5 6 10 3
6 -3 10 -1 10 5 0 6 4 9 9 5 11 -6 72 64 69 80 0 5 2 18 7 28 4 10 5 45 3 79
l-4 61 -19 13 c-10 8 -15 14 -10 14 5 0 0 7 -11 16 -10 8 -13 13 -6 9 23 -12
12 4 -19 26 l-31 22 -57 3 -56 3 -34 -16z m127 -100 c7 -13 16 -23 20 -23 5 0
5 -25 2 -55 l-6 -55 -15 -15 c-8 -9 -29 -19 -46 -24 l-32 -9 -5 15 c-3 8 -10
12 -14 9 -5 -3 -9 0 -10 7 -1 7 -6 38 -10 70 l-8 57 10 0 c5 0 7 3 4 6 -4 3 1
13 10 22 l17 17 35 0 35 0 13 -22z" />
    <path d="M2770 1440 c0 -5 -6 -7 -14 -4 -7 3 -26 -6 -41 -19 l-28 -24 -3 -51
-2 -52 10 0 c5 0 7 -4 3 -9 -7 -12 44 -53 56 -45 5 3 9 0 9 -6 0 -6 8 -10 18
-9 21 3 68 -16 77 -31 10 -17 -15 -40 -44 -40 -14 0 -41 10 -60 21 l-35 21
-13 -18 c-7 -10 -13 -14 -13 -10 0 4 -7 1 -15 -8 -8 -8 -15 -18 -15 -23 0 -4
16 -19 36 -33 l36 -24 69 -1 c38 0 69 3 69 7 0 4 6 5 13 2 16 -6 71 51 63 64
-3 6 -1 12 5 14 l11 4 -7 42 -7 42 -29 21 c-16 11 -33 17 -39 14 -5 -3 -10 -1
-10 6 l0 11 -25 -4 c-14 -3 -25 -2 -25 2 0 4 -9 10 -20 13 -25 6 -26 33 -1 46
l18 10 38 -19 38 -20 14 11 c7 6 11 15 8 19 -3 5 0 12 6 16 l12 7 -8 -14 -8
-14 18 17 17 16 -7 12 c-13 21 -88 48 -132 48 -24 1 -43 -3 -43 -8z" />
    <path d="M3110 1442 l0 -11 -15 5 -15 6 0 -12 c0 -6 -4 -8 -10 -5 -5 3 -10 1
-10 -5 0 -6 -4 -9 -9 -6 -10 7 -28 -12 -33 -34 -2 -8 -9 -20 -17 -26 l-14 -11
-5 -56 c-2 -31 -1 -64 3 -74 4 -10 9 -27 10 -37 1 -10 9 -24 18 -31 9 -7 14
-14 11 -17 -8 -8 47 -49 57 -42 5 3 9 1 9 -4 l0 -9 70 1 70 2 29 28 c16 15 28
35 27 43 -3 16 -26 34 -37 27 -4 -2 -10 3 -13 12 l-6 17 -19 -17 c-10 -10 -32
-21 -47 -25 l-29 -8 -30 30 -31 30 6 55 6 56 12 4 c7 2 10 7 8 11 -3 4 13 8
36 10 l40 2 20 -18 19 -17 9 14 c6 8 10 12 10 7 0 -13 50 24 50 38 0 6 -10 20
-22 31 l-23 19 15 -21 c8 -11 3 -7 -12 10 l-27 29 -56 5 -55 4 0 -10z" />
    <path d="M1980 1256 l0 -186 105 0 105 0 0 9 c0 5 8 7 18 5 l17 -5 27 28 c15
16 31 43 34 61 l7 32 -11 0 c-6 0 -9 6 -6 14 l5 14 -25 20 -25 19 18 17 19 17
-1 37 -1 37 -15 13 -16 13 15 -7 15 -7 -23 24 -23 24 -119 3 -120 4 0 -186z
m177 99 l15 -16 -6 -22 -5 -23 -40 4 -39 4 -4 34 -4 34 34 0 33 0 16 -15z m-1
-140 l22 -5 4 -24 c3 -14 2 -25 -1 -24 -3 0 -14 0 -24 -1 l-18 -1 6 -10 6 -10
-33 0 -34 0 -2 37 c-2 20 -5 39 -7 43 -4 6 38 3 81 -5z" />
    <path d="M3324 1427 c-2 -7 -3 -89 -2 -182 l3 -170 53 -3 52 -3 0 70 0 71 50
0 50 0 0 -70 0 -70 48 0 47 0 0 185 0 185 -47 0 -48 0 0 -65 0 -65 -50 0 -50
0 0 65 0 65 -50 0 -51 0 -5 -13z" />
  </g>
  <g transform="translate(0.000000,511.000000) scale(0.100000,-0.100000)" fill="#18993a" stroke="none">
    <path d="M3970 4171 c0 -5 5 -13 10 -16 6 -3 10 -2 10 4 0 5 -4 13 -10 16 -5
3 -10 2 -10 -4z" />
    <path d="M3980 4106 c0 -8 5 -18 10 -21 l10 -6 0 20 c0 12 -4 21 -10 21 -5 0
-10 -6 -10 -14z" />
    <path d="M3990 4036 c0 -8 5 -18 10 -21 l10 -6 0 20 c0 12 -4 21 -10 21 -5 0
-10 -6 -10 -14z" />
    <path d="M4000 3971 c0 -6 5 -13 10 -16 l10 -6 0 15 c0 9 -4 16 -10 16 -5 0
-10 -4 -10 -9z" />
    <path d="M4010 3931 c0 -6 5 -13 10 -16 l10 -6 0 15 c0 9 -4 16 -10 16 -5 0
-10 -4 -10 -9z" />
    <path d="M4020 3881 c0 -6 5 -13 10 -16 l10 -6 0 15 c0 9 -4 16 -10 16 -5 0
-10 -4 -10 -9z" />
    <path d="M4030 3821 c0 -6 5 -13 10 -16 l10 -6 0 15 c0 9 -4 16 -10 16 -5 0
-10 -4 -10 -9z" />
    <path d="M4060 3681 c0 -6 5 -13 10 -16 l10 -6 0 15 c0 9 -4 16 -10 16 -5 0
-10 -4 -10 -9z" />
    <path d="M4090 3521 c0 -6 5 -13 10 -16 l10 -6 0 15 c0 9 -4 16 -10 16 -5 0
-10 -4 -10 -9z" />
    <path d="M4426 3348 c-84 -372 -95 -422 -106 -488 -27 -157 -39 -256 -45 -360
l-6 -115 10 -89 c6 -49 20 -118 32 -153 l21 -63 108 0 109 0 10 38 c6 20 20
96 33 167 l22 130 1 210 0 210 -18 110 c-19 112 -46 230 -73 320 -28 91 -59
165 -69 165 -6 0 -19 -37 -29 -82z" />
  </g>
  <g transform="translate(0.000000,511.000000) scale(0.100000,-0.100000)" fill="#89bc6f" stroke="none">
    <path d="M3810 4326 c0 -2 8 -10 18 -17 l17 -14 -14 18 c-13 16 -21 21 -21 13z" />
    <path d="M3895 4250 c10 -11 20 -20 23 -20 3 0 -3 9 -13 20 -10 11 -20 20 -23
20 -3 0 3 -9 13 -20z" />
    <path d="M3969 4175 c6 -11 17 -65 25 -120 19 -125 41 -244 106 -555 130 -625
165 -911 158 -1263 l-3 -157 46 0 47 0 -24 66 -24 66 -11 98 -11 99 11 142
c14 177 34 284 133 724 11 50 22 102 25 118 3 15 9 27 14 27 23 0 -113 273
-207 415 -29 44 -85 121 -125 170 -80 98 -177 202 -160 170z" />
    <path d="M4500 3320 c0 -7 3 -10 7 -7 3 4 3 10 0 14 -4 3 -7 0 -7 -7z" />
    <path d="M4531 3214 l1 -19 5 13 c3 7 2 16 -1 19 -3 4 -6 -2 -5 -13z" />
    <path d="M4551 3134 l1 -19 5 13 c3 7 2 16 -1 19 -3 4 -6 -2 -5 -13z" />
    <path d="M4591 2914 l1 -19 5 13 c3 7 2 16 -1 19 -3 4 -6 -2 -5 -13z" />
    <path d="M4601 2864 l1 -19 5 13 c3 7 2 16 -1 19 -3 4 -6 -2 -5 -13z" />
    <path d="M4612 2740 c0 -14 2 -19 5 -12 2 6 2 18 0 25 -3 6 -5 1 -5 -13z" />
    <path d="M4612 2510 c0 -14 2 -19 5 -12 2 6 2 18 0 25 -3 6 -5 1 -5 -13z" />
    <path d="M4591 2334 l1 -19 5 13 c3 7 2 16 -1 19 -3 4 -6 -2 -5 -13z" />
    <path d="M4571 2204 l1 -19 5 13 c3 7 2 16 -1 19 -3 4 -6 -2 -5 -13z" />
    <path d="M4551 2114 l1 -19 5 13 c3 7 2 16 -1 19 -3 4 -6 -2 -5 -13z" />
  </g>
  <g transform="translate(0.000000,511.000000) scale(0.100000,-0.100000)" fill="#b01918" stroke="none">
    <path d="M760 4020 c0 -7 3 -10 7 -7 3 4 3 10 0 14 -4 3 -7 0 -7 -7z" />
    <path d="M800 3890 c0 -7 3 -10 7 -7 3 4 3 10 0 14 -4 3 -7 0 -7 -7z" />
    <path d="M830 3800 c0 -7 3 -10 7 -7 3 4 3 10 0 14 -4 3 -7 0 -7 -7z" />
    <path d="M870 3670 c0 -7 3 -10 7 -7 3 4 3 10 0 14 -4 3 -7 0 -7 -7z" />
    <path d="M880 3630 c0 -7 3 -10 7 -7 3 4 3 10 0 14 -4 3 -7 0 -7 -7z" />
    <path d="M910 3540 c0 -7 3 -10 7 -7 3 4 3 10 0 14 -4 3 -7 0 -7 -7z" />
    <path d="M930 3440 c0 -7 3 -10 7 -7 3 4 3 10 0 14 -4 3 -7 0 -7 -7z" />
    <path d="M337 3308 c-71 -226 -107 -456 -107 -690 l0 -144 20 -144 c11 -80 26
-167 33 -195 l13 -50 120 0 119 0 2 20 3 20 -9 -20 -10 -20 0 15 c-2 25 -28
261 -56 495 -14 121 -34 301 -45 400 -36 332 -44 395 -51 395 -3 0 -18 -37
-32 -82z" />
    <path d="M880 3270 c0 -7 3 -10 7 -7 3 4 3 10 0 14 -4 3 -7 0 -7 -7z" />
    <path d="M840 3140 c0 -7 3 -10 7 -7 3 4 3 10 0 14 -4 3 -7 0 -7 -7z" />
    <path d="M830 3100 c0 -7 3 -10 7 -7 3 4 3 10 0 14 -4 3 -7 0 -7 -7z" />
    <path d="M790 2970 c0 -7 3 -10 7 -7 3 4 3 10 0 14 -4 3 -7 0 -7 -7z" />
    <path d="M780 2930 c0 -7 3 -10 7 -7 3 4 3 10 0 14 -4 3 -7 0 -7 -7z" />
    <path d="M750 2840 c0 -7 3 -10 7 -7 3 4 3 10 0 14 -4 3 -7 0 -7 -7z" />
    <path d="M740 2800 c0 -7 3 -10 7 -7 3 4 3 10 0 14 -4 3 -7 0 -7 -7z" />
    <path d="M720 2740 c0 -7 3 -10 7 -7 3 4 3 10 0 14 -4 3 -7 0 -7 -7z" />
    <path d="M710 2710 c0 -7 3 -10 7 -7 3 4 3 10 0 14 -4 3 -7 0 -7 -7z" />
    <path d="M700 2670 c0 -7 3 -10 7 -7 3 4 3 10 0 14 -4 3 -7 0 -7 -7z" />
    <path d="M680 2610 c0 -7 3 -10 7 -7 3 4 3 10 0 14 -4 3 -7 0 -7 -7z" />
    <path d="M671 2574 l1 -19 5 13 c3 7 2 16 -1 19 -3 4 -6 -2 -5 -13z" />
    <path d="M661 2534 l1 -19 5 13 c3 7 2 16 -1 19 -3 4 -6 -2 -5 -13z" />
    <path d="M640 2480 c0 -7 3 -10 7 -7 3 4 3 10 0 14 -4 3 -7 0 -7 -7z" />
    <path d="M630 2440 c0 -7 3 -10 7 -7 3 4 3 10 0 14 -4 3 -7 0 -7 -7z" />
    <path d="M621 2404 l1 -19 5 13 c3 7 2 16 -1 19 -3 4 -6 -2 -5 -13z" />
    <path d="M600 2350 c0 -7 3 -10 7 -7 3 4 3 10 0 14 -4 3 -7 0 -7 -7z" />
    <path d="M590 2310 c0 -7 3 -10 7 -7 3 4 3 10 0 14 -4 3 -7 0 -7 -7z" />
    <path d="M580 2270 c0 -7 3 -10 7 -7 3 4 3 10 0 14 -4 3 -7 0 -7 -7z" />
    <path d="M571 2243 c-1 -6 -4 -20 -7 -30 l-6 -18 12 18 c6 10 9 23 6 30 l-4
12 -1 -12z" />
    <path d="M550 2180 c0 -7 3 -10 7 -7 3 4 3 10 0 14 -4 3 -7 0 -7 -7z" />
    <path d="M540 2140 c0 -7 3 -10 7 -7 3 4 3 10 0 14 -4 3 -7 0 -7 -7z" />
  </g>
  <g transform="translate(0.000000,511.000000) scale(0.100000,-0.100000)" fill="#5e5e5e" stroke="none">
    <path d="M1353 1521 c-28 -11 -67 -31 -86 -45 -49 -37 -86 -98 -100 -161 l-11
-53 11 -60 11 -60 31 -42 c17 -24 48 -55 68 -70 97 -71 241 -65 338 14 l44 36
28 58 28 57 0 60 -1 60 -25 56 c-15 30 -43 71 -63 91 l-36 35 -65 22 c-36 11
-78 21 -93 21 -15 -1 -50 -9 -79 -19z m219 -63 l53 -37 28 -54 27 -54 0 -54 0
-54 -21 -45 c-38 -85 -108 -136 -199 -147 l-48 -6 -54 19 -53 19 -40 40 -40
40 -18 56 c-9 31 -17 65 -17 76 0 40 33 122 63 159 l31 37 50 24 51 24 67 -3
66 -4 54 -36z" />
    <path d="M1288 1403 c-14 -16 -33 -42 -42 -60 l-16 -32 0 -56 0 -56 20 -38
c20 -41 63 -81 86 -81 l14 0 0 45 0 45 90 0 90 0 0 -45 0 -45 13 0 c16 0 70
55 88 90 7 14 13 52 13 85 l0 60 -16 30 c-23 42 -64 85 -83 85 l-15 0 0 -45 0
-45 -90 0 -90 0 0 45 0 45 -18 0 c-10 0 -30 -12 -44 -27z m302 -63 l20 -39 0
-40 c0 -44 -26 -121 -41 -121 l-9 0 0 120 c0 66 2 120 5 120 2 0 14 -18 25
-40z m-282 -142 l-3 -62 -20 29 -19 30 -1 60 0 61 20 29 20 30 3 -57 c2 -32 2
-85 0 -120z m222 57 l0 -45 -90 0 -90 0 0 45 0 45 90 0 90 0 0 -45z" />
  </g>
  <g transform="translate(0.000000,511.000000) scale(0.100000,-0.100000)" fill="#d9d2d1" stroke="none">
    <path d="M2258 4813 c7 -3 16 -2 19 1 4 3 -2 6 -13 5 l-19 -1 13 -5z" />
    <path d="M2578 4813 c7 -3 16 -2 19 1 4 3 -2 6 -13 5 l-19 -1 13 -5z" />
    <path d="M2148 4803 c7 -3 16 -2 19 1 4 3 -2 6 -13 5 l-19 -1 13 -5z" />
    <path d="M2683 4803 c4 -3 10 -3 14 0 3 4 0 7 -7 7 -7 0 -10 -3 -7 -7z" />
    <path d="M2083 4793 c4 -3 10 -3 14 0 3 4 0 7 -7 7 -7 0 -10 -3 -7 -7z" />
    <path d="M2033 4783 c4 -3 10 -3 14 0 3 4 0 7 -7 7 -7 0 -10 -3 -7 -7z" />
    <path d="M1933 4763 c4 -3 10 -3 14 0 3 4 0 7 -7 7 -7 0 -10 -3 -7 -7z" />
    <path d="M1344 4538 l-7 -11 11 7 c12 7 16 16 8 16 -3 0 -8 -5 -12 -12z" />
    <path d="M3495 4540 c3 -5 8 -10 11 -10 3 0 2 5 -1 10 -3 6 -8 10 -11 10 -3 0
-2 -4 1 -10z" />
    <path d="M1214 4458 l-7 -11 11 7 c7 4 12 9 12 12 0 8 -9 4 -16 -8z" />
    <path d="M1074 4358 l-7 -11 11 7 c12 7 16 16 8 16 -3 0 -8 -5 -12 -12z" />
    <path d="M1029 4323 l-14 -18 18 14 c9 7 17 15 17 17 0 8 -8 3 -21 -13z" />
    <path d="M3805 4330 c3 -5 8 -10 11 -10 3 0 2 5 -1 10 -3 6 -8 10 -11 10 -3 0
-2 -4 1 -10z" />
    <path d="M954 4258 l-19 -23 23 19 c21 18 27 26 19 26 -2 0 -12 -10 -23 -22z" />
    <path d="M3875 4270 c3 -5 8 -10 11 -10 3 0 2 5 -1 10 -3 6 -8 10 -11 10 -3 0
-2 -4 1 -10z" />
    <path d="M4010 4135 c13 -14 26 -25 28 -25 3 0 -5 11 -18 25 -13 14 -26 25
-28 25 -3 0 5 -11 18 -25z" />
    <path d="M784 4088 l-7 -11 11 7 c12 7 16 16 8 16 -3 0 -8 -5 -12 -12z" />
    <path d="M4085 4050 c3 -5 8 -10 11 -10 3 0 2 5 -1 10 -3 6 -8 10 -11 10 -3 0
-2 -4 1 -10z" />
    <path d="M714 4008 l-7 -11 11 7 c7 4 12 9 12 12 0 8 -9 4 -16 -8z" />
    <path d="M4135 3990 c3 -5 8 -10 11 -10 3 0 2 5 -1 10 -3 6 -8 10 -11 10 -3 0
-2 -4 1 -10z" />
    <path d="M674 3958 l-7 -11 11 7 c7 4 12 9 12 12 0 8 -9 4 -16 -8z" />
    <path d="M644 3918 l-7 -11 11 7 c7 4 12 9 12 12 0 8 -9 4 -16 -8z" />
    <path d="M624 3888 l-7 -11 11 7 c12 7 16 16 8 16 -3 0 -8 -5 -12 -12z" />
    <path d="M4225 3870 c3 -5 8 -10 11 -10 3 0 2 5 -1 10 -3 6 -8 10 -11 10 -3 0
-2 -4 1 -10z" />
    <path d="M584 3828 l-7 -11 11 7 c7 4 12 9 12 12 0 8 -9 4 -16 -8z" />
    <path d="M564 3798 l-7 -11 11 7 c7 4 12 9 12 12 0 8 -9 4 -16 -8z" />
    <path d="M4295 3760 c3 -5 8 -10 11 -10 3 0 2 5 -1 10 -3 6 -8 10 -11 10 -3 0
-2 -4 1 -10z" />
    <path d="M525 3734 c-9 -14 -15 -27 -13 -30 2 -2 12 10 22 26 21 37 15 40 -9
4z" />
    <path d="M494 3678 l-7 -11 11 7 c7 4 12 9 12 12 0 8 -9 4 -16 -8z" />
    <path d="M4440 3454 l0 -15 10 6 c6 4 8 11 5 16 -9 14 -15 11 -15 -7z" />
    <path d="M370 3410 c0 -7 3 -10 7 -7 3 4 3 10 0 14 -4 3 -7 0 -7 -7z" />
    <path d="M360 3380 c0 -7 3 -10 7 -7 3 4 3 10 0 14 -4 3 -7 0 -7 -7z" />
    <path d="M4490 3350 c0 -7 3 -10 7 -7 3 4 3 10 0 14 -4 3 -7 0 -7 -7z" />
    <path d="M340 3330 c0 -7 3 -10 7 -7 3 4 3 10 0 14 -4 3 -7 0 -7 -7z" />
    <path d="M4510 3280 c0 -7 3 -10 7 -7 3 4 3 10 0 14 -4 3 -7 0 -7 -7z" />
    <path d="M320 3260 c0 -7 3 -10 7 -7 3 4 3 10 0 14 -4 3 -7 0 -7 -7z" />
    <path d="M310 3230 c0 -7 3 -10 7 -7 3 4 3 10 0 14 -4 3 -7 0 -7 -7z" />
    <path d="M4540 3180 c0 -7 3 -10 7 -7 3 4 3 10 0 14 -4 3 -7 0 -7 -7z" />
    <path d="M4560 3100 c0 -7 3 -10 7 -7 3 4 3 10 0 14 -4 3 -7 0 -7 -7z" />
    <path d="M4571 3054 l1 -19 5 13 c3 7 2 16 -1 19 -3 4 -6 -2 -5 -13z" />
    <path d="M260 3020 c0 -7 3 -10 7 -7 3 4 3 10 0 14 -4 3 -7 0 -7 -7z" />
    <path d="M4581 2994 l1 -19 5 13 c3 7 2 16 -1 19 -3 4 -6 -2 -5 -13z" />
    <path d="M250 2960 c0 -7 3 -10 7 -7 3 4 3 10 0 14 -4 3 -7 0 -7 -7z" />
    <path d="M4590 2930 c0 -7 3 -10 7 -7 3 4 3 10 0 14 -4 3 -7 0 -7 -7z" />
    <path d="M240 2870 c0 -7 3 -10 7 -7 3 4 3 10 0 14 -4 3 -7 0 -7 -7z" />
    <path d="M230 2790 c0 -7 3 -10 7 -7 3 4 3 10 0 14 -4 3 -7 0 -7 -7z" />
    <path d="M4612 2770 c0 -14 2 -19 5 -12 2 6 2 18 0 25 -3 6 -5 1 -5 -13z" />
    <path d="M4611 2484 l1 -19 5 13 c3 7 2 16 -1 19 -3 4 -6 -2 -5 -13z" />
    <path d="M231 2454 l1 -19 5 13 c3 7 2 16 -1 19 -3 4 -6 -2 -5 -13z" />
    <path d="M4600 2390 c0 -7 3 -10 7 -7 3 4 3 10 0 14 -4 3 -7 0 -7 -7z" />
    <path d="M240 2380 c0 -7 3 -10 7 -7 3 4 3 10 0 14 -4 3 -7 0 -7 -7z" />
    <path d="M4590 2320 c0 -7 3 -10 7 -7 3 4 3 10 0 14 -4 3 -7 0 -7 -7z" />
    <path d="M4580 2260 c0 -7 3 -10 7 -7 3 4 3 10 0 14 -4 3 -7 0 -7 -7z" />
    <path d="M260 2230 c0 -7 3 -10 7 -7 3 4 3 10 0 14 -4 3 -7 0 -7 -7z" />
    <path d="M270 2180 c0 -7 3 -10 7 -7 3 4 3 10 0 14 -4 3 -7 0 -7 -7z" />
    <path d="M4560 2150 c0 -7 3 -10 7 -7 3 4 3 10 0 14 -4 3 -7 0 -7 -7z" />
    <path d="M280 2140 c0 -7 3 -10 7 -7 3 4 3 10 0 14 -4 3 -7 0 -7 -7z" />
    <path d="M1418 1533 c12 -2 30 -2 40 0 9 3 -1 5 -23 4 l-40 0 23 -4z" />
    <path d="M1355 1520 l-6 -10 15 6 c18 7 21 14 7 14 -6 0 -13 -4 -16 -10z" />
    <path d="M1500 1520 c8 -5 22 -9 30 -9 l15 0 -20 9 c-27 12 -43 12 -25 0z" />
    <path d="M1284 1488 l-7 -11 11 7 c12 7 16 16 8 16 -3 0 -8 -5 -12 -12z" />
    <path d="M1346 1491 l-6 -9 20 5 c23 6 26 13 6 13 -8 0 -17 -4 -20 -9z" />
    <path d="M1503 1493 c4 -3 10 -3 14 0 3 4 0 7 -7 7 -7 0 -10 -3 -7 -7z" />
    <path d="M1596 1478 c16 -13 38 -32 49 -43 l20 -21 -15 21 c-19 26 -63 64 -74
65 -5 0 4 -10 20 -22z" />
    <path d="M1305 1470 l-6 -10 15 6 c18 7 21 14 7 14 -6 0 -13 -4 -16 -10z" />
    <path d="M1550 1477 c0 -2 15 -14 33 -27 l32 -24 -14 18 c-13 16 -51 41 -51
33z" />
    <path d="M1234 1448 l-19 -23 23 19 c21 18 27 26 19 26 -2 0 -12 -10 -23 -22z" />
    <path d="M2413 1440 c-34 -14 -28 -21 7 -9 17 6 30 13 30 15 0 6 -12 4 -37 -6z" />
    <path d="M2510 1447 c0 -3 15 -10 32 -16 18 -6 28 -7 23 -2 -12 10 -55 25 -55
18z" />
    <path d="M3180 1447 c0 -3 15 -10 32 -16 18 -6 28 -7 23 -2 -12 10 -55 25 -55
18z" />
    <path d="M3327 1433 c-10 -9 -9 -351 1 -356 4 -3 7 78 7 179 0 101 0 184 -1
184 0 0 -4 -3 -7 -7z" />
    <path d="M3630 1297 l5 -142 3 134 c1 74 -1 138 -5 142 -4 5 -6 -56 -3 -134z" />
    <path d="M1306 1421 l-6 -9 20 5 20 5 0 -46 c0 -25 3 -46 8 -46 4 0 5 22 4 50
l-4 50 -18 0 c-11 0 -21 -4 -24 -9z" />
    <path d="M1195 1394 c-9 -14 -15 -27 -13 -30 2 -2 12 10 22 26 21 37 15 40 -9
4z" />
    <path d="M1572 1406 c7 -8 15 -12 17 -11 5 6 -10 25 -20 25 l-10 0 13 -14z" />
    <path d="M3266 1398 c10 -14 21 -24 23 -22 3 3 -6 15 -18 27 l-24 22 19 -27z" />
    <path d="M1226 1393 l-7 -18 12 12 c7 7 10 15 7 18 -3 3 -9 -2 -12 -12z" />
    <path d="M1645 1380 c9 -16 18 -30 21 -30 2 0 -2 14 -11 30 -9 17 -18 30 -21
30 -2 0 2 -13 11 -30z" />
    <path d="M2245 1400 c3 -5 8 -10 11 -10 3 0 2 5 -1 10 -3 6 -8 10 -11 10 -3 0
-2 -4 1 -10z" />
    <path d="M2345 1384 c-9 -14 -15 -27 -13 -30 2 -2 12 10 22 26 21 37 15 40 -9
4z" />
    <path d="M2595 1400 c3 -5 8 -10 11 -10 3 0 2 5 -1 10 -3 6 -8 10 -11 10 -3 0
-2 -4 1 -10z" />
    <path d="M3025 1399 c-4 -6 -5 -12 -2 -15 2 -3 7 2 10 11 7 17 1 20 -8 4z" />
    <path d="M2921 1368 l-23 -29 -17 6 -16 6 13 -13 12 -12 32 32 c18 17 30 33
27 35 -2 3 -15 -9 -28 -25z" />
    <path d="M1260 1369 c-7 -11 -10 -23 -7 -25 2 -2 9 7 15 21 14 30 7 33 -8 4z" />
    <path d="M1301 1377 l-11 -14 15 0 c8 0 15 6 15 14 0 7 -2 13 -4 13 -2 0 -9
-6 -15 -13z" />
    <path d="M1606 1367 c3 -10 9 -15 12 -12 3 3 0 11 -7 18 l-12 12 7 -18z" />
    <path d="M1206 1355 c-9 -26 -7 -32 5 -12 6 10 9 21 6 23 -2 3 -7 -2 -11 -11z" />
    <path d="M1580 1364 c0 -6 7 -19 16 -30 l15 -19 -12 25 c-14 31 -19 36 -19 24z" />
    <path d="M2780 1355 c-6 -8 -10 -19 -8 -24 1 -6 8 1 15 14 13 28 11 31 -7 10z" />
    <path d="M2823 1363 c4 -3 10 -3 14 0 3 4 0 7 -7 7 -7 0 -10 -3 -7 -7z" />
    <path d="M1690 1350 c0 -7 3 -10 7 -7 3 4 3 10 0 14 -4 3 -7 0 -7 -7z" />
    <path d="M3106 1345 c-11 -8 -15 -15 -9 -15 6 0 16 7 23 15 16 19 11 19 -14 0z" />
    <path d="M3148 1353 c7 -3 16 -2 19 1 4 3 -2 6 -13 5 l-19 -1 13 -5z" />
    <path d="M1170 1340 c0 -7 3 -10 7 -7 3 4 3 10 0 14 -4 3 -7 0 -7 -7z" />
    <path d="M3244 1338 l-7 -11 11 7 c12 7 16 16 8 16 -3 0 -8 -5 -12 -12z" />
    <path d="M1670 1330 c0 -7 3 -10 7 -7 3 4 3 10 0 14 -4 3 -7 0 -7 -7z" />
    <path d="M2530 1331 c0 -6 4 -13 10 -16 l10 -6 -6 15 c-7 18 -14 21 -14 7z" />
    <path d="M1630 1320 c0 -7 3 -10 7 -7 3 4 3 10 0 14 -4 3 -7 0 -7 -7z" />
    <path d="M1230 1310 c0 -7 3 -10 7 -7 3 4 3 10 0 14 -4 3 -7 0 -7 -7z" />
    <path d="M2310 1310 c0 -7 3 -10 7 -7 3 4 3 10 0 14 -4 3 -7 0 -7 -7z" />
    <path d="M2640 1310 c0 -7 3 -10 7 -7 3 4 3 10 0 14 -4 3 -7 0 -7 -7z" />
    <path d="M2980 1310 c0 -7 3 -10 7 -7 3 4 3 10 0 14 -4 3 -7 0 -7 -7z" />
    <path d="M1161 1294 l1 -19 5 13 c3 7 2 16 -1 19 -3 4 -6 -2 -5 -13z" />
    <path d="M1190 1300 c0 -7 3 -10 7 -7 3 4 3 10 0 14 -4 3 -7 0 -7 -7z" />
    <path d="M1260 1300 c0 -7 3 -10 7 -7 3 4 3 10 0 14 -4 3 -7 0 -7 -7z" />
    <path d="M1340 1255 c0 -30 3 -55 8 -55 4 0 7 25 7 55 0 30 -3 55 -7 55 -5 0
-8 -25 -8 -55z" />
    <path d="M2803 1303 c4 -3 10 -3 14 0 3 4 0 7 -7 7 -7 0 -10 -3 -7 -7z" />
    <path d="M2853 1293 c4 -3 10 -3 14 0 3 4 0 7 -7 7 -7 0 -10 -3 -7 -7z" />
    <path d="M1612 1257 c-1 -21 -9 -54 -17 -74 -8 -20 -13 -38 -11 -40 2 -2 11
16 21 40 l17 44 -5 34 -4 34 -1 -38z" />
    <path d="M1642 1260 c0 -19 2 -27 5 -17 2 9 2 25 0 35 -3 9 -5 1 -5 -18z" />
    <path d="M1713 1255 l0 -40 4 23 c2 12 2 30 0 40 -3 9 -5 -1 -4 -23z" />
    <path d="M2552 1260 c0 -14 2 -19 5 -12 2 6 2 18 0 25 -3 6 -5 1 -5 -13z" />
    <path d="M2928 1252 c9 -10 19 -17 21 -16 6 5 -20 34 -30 34 -5 0 -1 -8 9 -18z" />
    <path d="M2253 1237 c12 -13 24 -22 26 -20 6 4 -30 43 -40 43 -5 0 2 -10 14
-23z" />
    <path d="M2717 1249 c7 -7 15 -10 18 -7 3 3 -2 9 -12 12 l-18 7 12 -12z" />
    <path d="M1160 1220 c0 -7 3 -10 7 -7 3 4 3 10 0 14 -4 3 -7 0 -7 -7z" />
    <path d="M2763 1223 c4 -3 10 -3 14 0 3 4 0 7 -7 7 -7 0 -10 -3 -7 -7z" />
    <path d="M1190 1210 c0 -7 3 -10 7 -7 3 4 3 10 0 14 -4 3 -7 0 -7 -7z" />
    <path d="M1260 1210 c0 -7 3 -10 7 -7 3 4 3 10 0 14 -4 3 -7 0 -7 -7z" />
    <path d="M2163 1213 c4 -3 10 -3 14 0 3 4 0 7 -7 7 -7 0 -10 -3 -7 -7z" />
    <path d="M2310 1210 c0 -7 3 -10 7 -7 3 4 3 10 0 14 -4 3 -7 0 -7 -7z" />
    <path d="M2545 1209 c-4 -6 -5 -12 -2 -15 2 -3 7 2 10 11 7 17 1 20 -8 4z" />
    <path d="M2640 1210 c0 -7 3 -10 7 -7 3 4 3 10 0 14 -4 3 -7 0 -7 -7z" />
    <path d="M2830 1216 c0 -2 7 -9 15 -16 l15 -12 0 10 c0 5 -7 12 -15 16 -8 3
-15 4 -15 2z" />
    <path d="M3420 1213 c0 -5 27 -8 60 -8 33 0 60 3 60 8 0 4 -27 7 -60 7 -33 0
-60 -3 -60 -7z" />
    <path d="M1230 1200 c0 -7 3 -10 7 -7 3 4 3 10 0 14 -4 3 -7 0 -7 -7z" />
    <path d="M2952 1185 l0 -30 5 18 c2 9 2 23 0 30 -3 6 -5 -1 -5 -18z" />
    <path d="M1626 1183 l-7 -18 12 12 c7 7 10 15 7 18 -3 3 -9 -2 -12 -12z" />
    <path d="M1658 1160 c-9 -22 -15 -40 -13 -40 8 0 36 61 33 70 -2 5 -11 -9 -20
-30z" />
    <path d="M1696 1185 c-3 -9 -6 -22 -5 -28 0 -7 5 -1 10 12 5 13 8 26 5 28 -2
2 -6 -3 -10 -12z" />
    <path d="M2282 1180 c0 -14 2 -19 5 -12 2 6 2 18 0 25 -3 6 -5 1 -5 -13z" />
    <path d="M1201 1180 c0 -8 4 -22 9 -30 12 -18 12 -2 0 25 l-9 20 0 -15z" />
    <path d="M2420 1186 c0 -2 8 -10 18 -17 l17 -14 -14 18 c-13 16 -21 21 -21 13z" />
    <path d="M1170 1170 c0 -7 3 -10 7 -7 3 4 3 10 0 14 -4 3 -7 0 -7 -7z" />
    <path d="M1254 1155 c8 -17 23 -39 35 -49 28 -25 27 -15 -1 16 -13 14 -29 34
-36 44 l-12 19 14 -30z" />
    <path d="M1275 1170 c3 -5 8 -10 11 -10 3 0 2 5 -1 10 -3 6 -8 10 -11 10 -3 0
-2 -4 1 -10z" />
    <path d="M1338 1130 c-1 -28 0 -50 5 -50 4 0 7 20 7 45 l0 44 93 4 92 3 -97 2
-96 2 -4 -50z" />
    <path d="M2173 1169 l-11 -11 -46 3 c-25 3 -46 1 -46 -3 0 -5 22 -8 49 -8 l49
0 12 15 c14 17 9 20 -7 4z" />
    <path d="M2616 1148 l-18 -33 21 25 c18 22 26 40 18 40 -1 0 -11 -15 -21 -32z" />
    <path d="M2495 1160 l-6 -10 15 6 c18 7 21 14 7 14 -6 0 -13 -4 -16 -10z" />
    <path d="M2673 1154 c-16 -17 -17 -34 -1 -34 6 0 8 3 5 7 -4 3 -2 12 5 20 15
18 6 25 -9 7z" />
    <path d="M3000 1161 c0 -6 4 -13 10 -16 l10 -6 -6 15 c-7 18 -14 21 -14 7z" />
    <path d="M3175 1160 l-6 -10 15 6 c18 7 21 14 7 14 -6 0 -13 -4 -16 -10z" />
    <path d="M3260 1166 c0 -2 7 -7 16 -10 l15 -6 -6 10 c-6 10 -25 14 -25 6z" />
    <path d="M1606 1143 l-7 -18 12 12 c7 7 10 15 7 18 -3 3 -9 -2 -12 -12z" />
    <path d="M2760 1156 c0 -2 7 -7 16 -10 l15 -6 -6 10 c-6 10 -25 14 -25 6z" />
    <path d="M1180 1143 c0 -6 8 -17 18 -24 l17 -14 -15 20 c-8 11 -16 22 -17 24
-2 2 -3 0 -3 -6z" />
    <path d="M1550 1140 c0 -5 5 -10 11 -10 5 0 7 5 4 10 -3 6 -8 10 -11 10 -2 0
-4 -4 -4 -10z" />
    <path d="M2340 1141 c0 -6 4 -13 10 -16 l10 -6 -6 15 c-7 18 -14 21 -14 7z" />
    <path d="M1226 1117 c3 -10 9 -15 12 -12 3 3 0 11 -7 18 l-12 12 7 -18z" />
    <path d="M3025 1120 c3 -5 8 -10 11 -10 3 0 2 5 -1 10 -3 6 -8 10 -11 10 -3 0
-2 -4 1 -10z" />
    <path d="M1650 1090 c-12 -16 -19 -30 -16 -30 2 0 14 14 26 30 12 17 19 30 16
30 -2 0 -14 -13 -26 -30z" />
    <path d="M1614 1088 l-19 -23 23 19 c21 18 27 26 19 26 -2 0 -12 -10 -23 -22z" />
    <path d="M1550 1090 l-15 -10 12 0 c6 0 15 5 18 10 8 12 4 12 -15 0z" />
    <path d="M2220 1090 l-15 -10 12 0 c6 0 15 5 18 10 8 12 4 12 -15 0z" />
    <path d="M2890 1090 l-15 -10 12 0 c6 0 15 5 18 10 8 12 4 12 -15 0z" />
    <path d="M1980 1080 c0 -5 5 -10 11 -10 5 0 7 5 4 10 -3 6 -8 10 -11 10 -2 0
-4 -4 -4 -10z" />
    <path d="M2737 1079 c7 -7 15 -10 18 -7 3 3 -2 9 -12 12 l-18 7 12 -12z" />
    <path d="M3210 1080 l-15 -10 12 0 c6 0 15 5 18 10 8 12 4 12 -15 0z" />
    <path d="M3415 1080 c-3 -5 -1 -10 4 -10 6 0 11 5 11 10 0 6 -2 10 -4 10 -3 0
-8 -4 -11 -10z" />
    <path d="M3530 1080 c0 -5 5 -10 11 -10 5 0 7 5 4 10 -3 6 -8 10 -11 10 -2 0
-4 -4 -4 -10z" />
    <path d="M1230 1071 c0 -10 19 -25 25 -20 1 2 -3 10 -11 17 l-14 13 0 -10z" />
    <path d="M2168 1073 c7 -3 16 -2 19 1 4 3 -2 6 -13 5 l-19 -1 13 -5z" />
    <path d="M2423 1073 c4 -3 10 -3 14 0 3 4 0 7 -7 7 -7 0 -10 -3 -7 -7z" />
    <path d="M2523 1073 c4 -3 10 -3 14 0 3 4 0 7 -7 7 -7 0 -10 -3 -7 -7z" />
    <path d="M3093 1073 c4 -3 10 -3 14 0 3 4 0 7 -7 7 -7 0 -10 -3 -7 -7z" />
    <path d="M3613 1073 c4 -3 10 -3 14 0 3 4 0 7 -7 7 -7 0 -10 -3 -7 -7z" />
    <path d="M2473 1063 c4 -3 10 -3 14 0 3 4 0 7 -7 7 -7 0 -10 -3 -7 -7z" />
    <path d="M1295 1050 c3 -5 8 -10 11 -10 3 0 2 5 -1 10 -3 6 -8 10 -11 10 -3 0
-2 -4 1 -10z" />
    <path d="M1275 1031 c6 -11 75 -44 80 -39 2 2 -16 13 -41 25 -25 12 -42 18
-39 14z" />
    <path d="M1340 1025 c14 -8 32 -14 40 -14 8 0 0 6 -19 14 -42 19 -54 19 -21 0z" />
    <path d="M1560 1015 c-14 -8 -20 -14 -14 -15 5 0 19 7 30 15 24 18 16 19 -16
0z" />
    <path d="M1488 1013 c7 -3 16 -2 19 1 4 3 -2 6 -13 5 l-19 -1 13 -5z" />
    <path d="M1513 993 c4 -3 10 -3 14 0 3 4 0 7 -7 7 -7 0 -10 -3 -7 -7z" />
    <path d="M1383 983 c4 -3 10 -3 14 0 3 4 0 7 -7 7 -7 0 -10 -3 -7 -7z" />
    <path d="M1473 983 c4 -3 10 -3 14 0 3 4 0 7 -7 7 -7 0 -10 -3 -7 -7z" />
  </g>
  <g transform="translate(0.000000,511.000000) scale(0.100000,-0.100000)" fill="#ef5d68" stroke="none">
    <path d="M729 4023 l-14 -18 18 14 c9 7 17 15 17 17 0 8 -8 3 -21 -13z" />
    <path d="M689 3973 l-14 -18 18 14 c16 13 21 21 13 21 -2 0 -10 -8 -17 -17z" />
    <path d="M654 3928 l-7 -11 11 7 c12 7 16 16 8 16 -3 0 -8 -5 -12 -12z" />
    <path d="M604 3858 l-7 -11 11 7 c7 4 12 9 12 12 0 8 -9 4 -16 -8z" />
    <path d="M524 3728 l-7 -11 11 7 c7 4 12 9 12 12 0 8 -9 4 -16 -8z" />
    <path d="M300 3190 c0 -7 3 -10 7 -7 3 4 3 10 0 14 -4 3 -7 0 -7 -7z" />
    <path d="M290 3150 c0 -7 3 -10 7 -7 3 4 3 10 0 14 -4 3 -7 0 -7 -7z" />
    <path d="M270 3070 c0 -7 3 -10 7 -7 3 4 3 10 0 14 -4 3 -7 0 -7 -7z" />
    <path d="M260 3010 c0 -7 3 -10 7 -7 3 4 3 10 0 14 -4 3 -7 0 -7 -7z" />
    <path d="M251 2944 l1 -19 5 13 c3 7 2 16 -1 19 -3 4 -6 -2 -5 -13z" />
    <path d="M241 2854 l1 -19 5 13 c3 7 2 16 -1 19 -3 4 -6 -2 -5 -13z" />
    <path d="M232 2770 c0 -14 2 -19 5 -12 2 6 2 18 0 25 -3 6 -5 1 -5 -13z" />
    <path d="M231 2474 l1 -19 5 13 c3 7 2 16 -1 19 -3 4 -6 -2 -5 -13z" />
    <path d="M241 2394 l1 -19 5 13 c3 7 2 16 -1 19 -3 4 -6 -2 -5 -13z" />
    <path d="M251 2304 l1 -19 5 13 c3 7 2 16 -1 19 -3 4 -6 -2 -5 -13z" />
    <path d="M260 2240 c0 -7 3 -10 7 -7 3 4 3 10 0 14 -4 3 -7 0 -7 -7z" />
    <path d="M280 2150 c0 -7 3 -10 7 -7 3 4 3 10 0 14 -4 3 -7 0 -7 -7z" />
    <path d="M290 2100 c0 -7 3 -10 7 -7 3 4 3 10 0 14 -4 3 -7 0 -7 -7z" />
    <path d="M2448 1443 c7 -3 16 -2 19 1 4 3 -2 6 -13 5 l-19 -1 13 -5z" />
    <path d="M2498 1443 c7 -3 16 -2 19 1 4 3 -2 6 -13 5 l-19 -1 13 -5z" />
    <path d="M2778 1443 c6 -2 18 -2 25 0 6 3 1 5 -13 5 -14 0 -19 -2 -12 -5z" />
    <path d="M2828 1443 c6 -2 18 -2 25 0 6 3 1 5 -13 5 -14 0 -19 -2 -12 -5z" />
    <path d="M3128 1443 c12 -2 32 -2 45 0 12 2 2 4 -23 4 -25 0 -35 -2 -22 -4z" />
    <path d="M1980 1261 c0 -99 3 -182 8 -184 4 -3 6 75 4 174 l-3 178 108 4 108
3 -112 2 -113 2 0 -179z" />
    <path d="M2413 1433 c4 -3 10 -3 14 0 3 4 0 7 -7 7 -7 0 -10 -3 -7 -7z" />
    <path d="M2533 1433 c4 -3 10 -3 14 0 3 4 0 7 -7 7 -7 0 -10 -3 -7 -7z" />
    <path d="M2709 1411 c-16 -16 -29 -38 -29 -48 l1 -18 14 32 c7 17 26 38 42 47
15 8 22 15 15 16 -8 0 -27 -13 -43 -29z" />
    <path d="M2873 1433 c4 -3 10 -3 14 0 3 4 0 7 -7 7 -7 0 -10 -3 -7 -7z" />
    <path d="M3083 1433 c4 -3 10 -3 14 0 3 4 0 7 -7 7 -7 0 -10 -3 -7 -7z" />
    <path d="M3203 1433 c4 -3 10 -3 14 0 3 4 0 7 -7 7 -7 0 -10 -3 -7 -7z" />
    <path d="M3373 1433 l47 -4 0 -65 0 -64 60 0 60 0 0 64 0 65 48 4 47 3 -52 2
-53 2 0 -65 0 -65 -50 0 -50 0 0 65 0 65 -52 -2 -53 -2 48 -3z" />
    <path d="M2211 1427 c2 -1 13 -9 24 -17 l20 -15 -14 18 c-7 9 -18 17 -24 17
-6 0 -8 -1 -6 -3z" />
    <path d="M2380 1420 l-15 -10 12 0 c6 0 15 5 18 10 8 12 4 12 -15 0z" />
    <path d="M2567 1419 c7 -7 15 -10 18 -7 3 3 -2 9 -12 12 l-18 7 12 -12z" />
    <path d="M2907 1419 c7 -7 15 -10 18 -7 3 3 -2 9 -12 12 l-18 7 12 -12z" />
    <path d="M2344 1378 l-7 -11 11 7 c12 7 16 16 8 16 -3 0 -8 -5 -12 -12z" />
    <path d="M3014 1378 l-7 -11 11 7 c7 4 12 9 12 12 0 8 -9 4 -16 -8z" />
    <path d="M2261 1364 l1 -19 5 13 c3 7 2 16 -1 19 -3 4 -6 -2 -5 -13z" />
    <path d="M3276 1363 l-7 -18 12 12 c7 7 10 15 7 18 -3 3 -9 -2 -12 -12z" />
    <path d="M2793 1363 c4 -3 10 -3 14 0 3 4 0 7 -7 7 -7 0 -10 -3 -7 -7z" />
    <path d="M2831 1366 c2 -2 15 -9 29 -15 l25 -12 -19 15 c-11 9 -24 16 -30 16
-5 0 -7 -2 -5 -4z" />
    <path d="M2159 1352 l14 -10 -6 -22 -6 -23 10 10 c15 15 7 45 -11 50 l-15 5
14 -10z" />
    <path d="M2325 1349 c-4 -6 -5 -12 -2 -15 2 -3 7 2 10 11 7 17 1 20 -8 4z" />
    <path d="M2453 1353 c4 -3 10 -3 14 0 3 4 0 7 -7 7 -7 0 -10 -3 -7 -7z" />
    <path d="M2493 1353 c4 -3 10 -3 14 0 3 4 0 7 -7 7 -7 0 -10 -3 -7 -7z" />
    <path d="M2626 1347 c3 -10 9 -15 12 -12 3 3 0 11 -7 18 l-12 12 7 -18z" />
    <path d="M2995 1349 c-4 -6 -5 -12 -2 -15 2 -3 7 2 10 11 7 17 1 20 -8 4z" />
    <path d="M3123 1353 c4 -3 10 -3 14 0 3 4 0 7 -7 7 -7 0 -10 -3 -7 -7z" />
    <path d="M3160 1356 c0 -2 9 -6 20 -9 l20 -5 -6 9 c-5 9 -34 13 -34 5z" />
    <path d="M2424 1338 l-7 -11 11 7 c12 7 16 16 8 16 -3 0 -8 -5 -12 -12z" />
    <path d="M2525 1340 c3 -5 8 -10 11 -10 3 0 2 5 -1 10 -3 6 -8 10 -11 10 -3 0
-2 -4 1 -10z" />
    <path d="M3085 1329 c-4 -6 -5 -12 -2 -15 2 -3 7 2 10 11 7 17 1 20 -8 4z" />
    <path d="M2261 1314 l1 -19 5 13 c3 7 2 16 -1 19 -3 4 -6 -2 -5 -13z" />
    <path d="M2782 1314 c10 -10 20 -16 22 -13 3 3 -5 11 -17 18 l-22 13 17 -18z" />
    <path d="M3213 1323 c4 -3 10 -3 14 0 3 4 0 7 -7 7 -7 0 -10 -3 -7 -7z" />
    <path d="M2681 1304 l1 -19 5 13 c3 7 2 16 -1 19 -3 4 -6 -2 -5 -13z" />
    <path d="M2070 1298 c0 -5 18 -8 40 -8 22 0 40 2 40 4 0 2 -18 6 -40 8 -22 2
-40 0 -40 -4z" />
    <path d="M2313 1260 c0 -30 2 -43 4 -27 2 15 2 39 0 55 -2 15 -4 2 -4 -28z" />
    <path d="M2400 1290 c0 -7 3 -10 7 -7 3 4 3 10 0 14 -4 3 -7 0 -7 -7z" />
    <path d="M2550 1290 c0 -7 3 -10 7 -7 3 4 3 10 0 14 -4 3 -7 0 -7 -7z" />
    <path d="M2643 1255 c0 -27 2 -38 4 -22 2 15 2 37 0 50 -2 12 -4 0 -4 -28z" />
    <path d="M2838 1293 c7 -3 16 -2 19 1 4 3 -2 6 -13 5 l-19 -1 13 -5z" />
    <path d="M2983 1260 c0 -25 2 -35 4 -22 2 12 2 32 0 45 -2 12 -4 2 -4 -23z" />
    <path d="M3071 1284 l1 -19 5 13 c3 7 2 16 -1 19 -3 4 -6 -2 -5 -13z" />
    <path d="M2231 1276 l-12 -14 13 -8 13 -7 -7 8 c-4 4 -3 14 3 22 6 7 9 13 6
13 -2 0 -10 -6 -16 -14z" />
    <path d="M2881 1287 c2 -1 13 -9 24 -17 l20 -15 -14 18 c-7 9 -18 17 -24 17
-6 0 -8 -1 -6 -3z" />
    <path d="M2690 1276 c0 -2 8 -10 18 -17 l17 -14 -14 18 c-13 16 -21 21 -21 13z" />
    <path d="M2255 1240 c3 -5 8 -10 11 -10 3 0 2 5 -1 10 -3 6 -8 10 -11 10 -3 0
-2 -4 1 -10z" />
    <path d="M2735 1240 c3 -5 8 -10 11 -10 3 0 2 5 -1 10 -3 6 -8 10 -11 10 -3 0
-2 -4 1 -10z" />
    <path d="M3071 1234 l1 -19 5 13 c3 7 2 16 -1 19 -3 4 -6 -2 -5 -13z" />
    <path d="M2401 1229 c-1 -8 6 -24 15 -35 l15 -19 -9 20 c-5 11 -12 27 -15 35
l-5 15 -1 -16z" />
    <path d="M2551 1224 l1 -19 5 13 c3 7 2 16 -1 19 -3 4 -6 -2 -5 -13z" />
    <path d="M2940 1230 c0 -7 3 -10 7 -7 3 4 3 10 0 14 -4 3 -7 0 -7 -7z" />
    <path d="M2076 1222 c-2 -4 13 -6 35 -4 21 2 39 6 39 8 0 7 -69 4 -74 -4z" />
    <path d="M2773 1223 c4 -3 10 -3 14 0 3 4 0 7 -7 7 -7 0 -10 -3 -7 -7z" />
    <path d="M2178 1193 l6 -28 4 19 c2 10 0 22 -6 28 l-10 10 6 -29z" />
    <path d="M2818 1213 c7 -3 16 -2 19 1 4 3 -2 6 -13 5 l-19 -1 13 -5z" />
    <path d="M3420 1148 c-3 -42 -1 -73 3 -69 4 4 7 39 5 77 l-3 69 -5 -77z" />
    <path d="M3531 1153 c0 -39 2 -74 7 -76 4 -3 6 18 4 46 -5 92 -9 104 -11 30z" />
    <path d="M3080 1201 c0 -10 39 -46 43 -40 2 2 -7 14 -20 26 -13 12 -23 19 -23
14z" />
    <path d="M2524 1178 l-19 -23 23 19 c21 18 27 26 19 26 -2 0 -12 -10 -23 -22z" />
    <path d="M3204 1178 l-19 -23 21 18 c11 9 24 14 29 10 l8 -8 -7 13 c-4 6 -8
12 -10 12 -2 0 -11 -10 -22 -22z" />
    <path d="M2320 1180 c0 -7 3 -10 7 -7 3 4 3 10 0 14 -4 3 -7 0 -7 -7z" />
    <path d="M2704 1178 l-7 -11 11 7 c6 4 24 -1 39 -10 l28 -16 -25 21 c-29 24
-36 25 -46 9z" />
    <path d="M2990 1181 c0 -6 4 -13 10 -16 l10 -6 -6 15 c-7 18 -14 21 -14 7z" />
    <path d="M3255 1170 c3 -5 8 -10 11 -10 3 0 2 5 -1 10 -3 6 -8 10 -11 10 -3 0
-2 -4 1 -10z" />
    <path d="M2845 1161 c-6 -5 -23 -11 -40 -14 l-30 -4 31 -2 32 -1 12 15 c14 16
10 21 -5 6z" />
    <path d="M2153 1153 c4 -3 10 -3 14 0 3 4 0 7 -7 7 -7 0 -10 -3 -7 -7z" />
    <path d="M2335 1150 c3 -5 8 -10 11 -10 3 0 2 5 -1 10 -3 6 -8 10 -11 10 -3 0
-2 -4 1 -10z" />
    <path d="M2468 1153 c6 -2 18 -2 25 0 6 3 1 5 -13 5 -14 0 -19 -2 -12 -5z" />
    <path d="M2614 1148 l-7 -11 11 7 c7 4 12 9 12 12 0 8 -9 4 -16 -8z" />
    <path d="M2671 1147 l-11 -14 28 -24 27 -24 -22 26 -23 25 12 12 c7 7 9 12 6
12 -3 0 -11 -6 -17 -13z" />
    <path d="M3148 1153 c6 -2 18 -2 25 0 6 3 1 5 -13 5 -14 0 -19 -2 -12 -5z" />
    <path d="M2251 1116 l-24 -31 28 27 c16 15 27 29 24 31 -2 3 -15 -10 -28 -27z" />
    <path d="M2921 1116 l-24 -31 28 27 c16 15 27 29 24 31 -2 3 -15 -10 -28 -27z" />
    <path d="M3252 1110 c-18 -17 -29 -30 -24 -30 5 0 21 14 37 30 37 38 30 38
-13 0z" />
    <path d="M2365 1110 c10 -11 20 -20 23 -20 3 0 -3 9 -13 20 -10 11 -20 20 -23
20 -3 0 3 -9 13 -20z" />
    <path d="M2584 1108 l-19 -23 23 19 c21 18 27 26 19 26 -2 0 -12 -10 -23 -22z" />
    <path d="M3034 1111 c7 -11 46 -35 46 -28 0 3 -12 12 -26 22 -15 9 -23 12 -20
6z" />
    <path d="M2203 1083 c4 -3 10 -3 14 0 3 4 0 7 -7 7 -7 0 -10 -3 -7 -7z" />
    <path d="M2723 1083 c4 -3 10 -3 14 0 3 4 0 7 -7 7 -7 0 -10 -3 -7 -7z" />
    <path d="M2433 1073 c4 -3 10 -3 14 0 3 4 0 7 -7 7 -7 0 -10 -3 -7 -7z" />
    <path d="M2508 1073 c7 -3 16 -2 19 1 4 3 -2 6 -13 5 l-19 -1 13 -5z" />
    <path d="M2758 1073 c7 -3 16 -2 19 1 4 3 -2 6 -13 5 l-19 -1 13 -5z" />
    <path d="M2848 1073 c7 -3 16 -2 19 1 4 3 -2 6 -13 5 l-19 -1 13 -5z" />
    <path d="M3108 1073 c7 -3 16 -2 19 1 4 3 -2 6 -13 5 l-19 -1 13 -5z" />
    <path d="M3188 1073 c7 -3 16 -2 19 1 4 3 -2 6 -13 5 l-19 -1 13 -5z" />
  </g>
  <g transform="translate(0.000000,511.000000) scale(0.100000,-0.100000)" fill="#74a17a" stroke="none">
    <path d="M2163 4803 c4 -3 10 -3 14 0 3 4 0 7 -7 7 -7 0 -10 -3 -7 -7z" />
    <path d="M3915 4230 c3 -5 8 -10 11 -10 3 0 2 5 -1 10 -3 6 -8 10 -11 10 -3 0
-2 -4 1 -10z" />
    <path d="M3955 4190 c3 -5 8 -10 11 -10 3 0 2 5 -1 10 -3 6 -8 10 -11 10 -3 0
-2 -4 1 -10z" />
    <path d="M3980 4120 c0 -7 3 -10 7 -7 3 4 3 10 0 14 -4 3 -7 0 -7 -7z" />
    <path d="M3990 4050 c0 -7 3 -10 7 -7 3 4 3 10 0 14 -4 3 -7 0 -7 -7z" />
    <path d="M4000 3980 c0 -7 3 -10 7 -7 3 4 3 10 0 14 -4 3 -7 0 -7 -7z" />
    <path d="M4020 3890 c0 -7 3 -10 7 -7 3 4 3 10 0 14 -4 3 -7 0 -7 -7z" />
    <path d="M4030 3830 c0 -7 3 -10 7 -7 3 4 3 10 0 14 -4 3 -7 0 -7 -7z" />
    <path d="M4040 3770 c0 -7 3 -10 7 -7 3 4 3 10 0 14 -4 3 -7 0 -7 -7z" />
    <path d="M4060 3690 c0 -7 3 -10 7 -7 3 4 3 10 0 14 -4 3 -7 0 -7 -7z" />
    <path d="M4070 3630 c0 -7 3 -10 7 -7 3 4 3 10 0 14 -4 3 -7 0 -7 -7z" />
    <path d="M4080 3580 c0 -7 3 -10 7 -7 3 4 3 10 0 14 -4 3 -7 0 -7 -7z" />
    <path d="M4090 3530 c0 -7 3 -10 7 -7 3 4 3 10 0 14 -4 3 -7 0 -7 -7z" />
    <path d="M4441 3460 c0 -8 4 -22 9 -30 12 -18 12 -2 0 25 l-9 20 0 -15z" />
    <path d="M4111 3444 l1 -19 5 13 c3 7 2 16 -1 19 -3 4 -6 -2 -5 -13z" />
    <path d="M4120 3390 c0 -7 3 -10 7 -7 3 4 3 10 0 14 -4 3 -7 0 -7 -7z" />
    <path d="M4440 3380 c0 -7 3 -10 7 -7 3 4 3 10 0 14 -4 3 -7 0 -7 -7z" />
    <path d="M4130 3340 c0 -7 3 -10 7 -7 3 4 3 10 0 14 -4 3 -7 0 -7 -7z" />
    <path d="M4140 3290 c0 -7 3 -10 7 -7 3 4 3 10 0 14 -4 3 -7 0 -7 -7z" />
    <path d="M4150 3250 c0 -7 3 -10 7 -7 3 4 3 10 0 14 -4 3 -7 0 -7 -7z" />
    <path d="M4410 3250 c0 -7 3 -10 7 -7 3 4 3 10 0 14 -4 3 -7 0 -7 -7z" />
    <path d="M4161 3194 l1 -19 5 13 c3 7 2 16 -1 19 -3 4 -6 -2 -5 -13z" />
    <path d="M4400 3200 c0 -7 3 -10 7 -7 3 4 3 10 0 14 -4 3 -7 0 -7 -7z" />
    <path d="M4171 3134 l1 -19 5 13 c3 7 2 16 -1 19 -3 4 -6 -2 -5 -13z" />
    <path d="M4380 3130 c0 -7 3 -10 7 -7 3 4 3 10 0 14 -4 3 -7 0 -7 -7z" />
    <path d="M4180 3080 c0 -7 3 -10 7 -7 3 4 3 10 0 14 -4 3 -7 0 -7 -7z" />
    <path d="M4370 3080 c0 -7 3 -10 7 -7 3 4 3 10 0 14 -4 3 -7 0 -7 -7z" />
    <path d="M4191 3034 l1 -19 5 13 c3 7 2 16 -1 19 -3 4 -6 -2 -5 -13z" />
    <path d="M4570 3040 c0 -7 3 -10 7 -7 3 4 3 10 0 14 -4 3 -7 0 -7 -7z" />
    <path d="M4361 3024 l1 -19 5 13 c3 7 2 16 -1 19 -3 4 -6 -2 -5 -13z" />
    <path d="M4201 2964 l1 -19 5 13 c3 7 2 16 -1 19 -3 4 -6 -2 -5 -13z" />
    <path d="M4340 2940 c0 -7 3 -10 7 -7 3 4 3 10 0 14 -4 3 -7 0 -7 -7z" />
    <path d="M4211 2894 l1 -19 5 13 c3 7 2 16 -1 19 -3 4 -6 -2 -5 -13z" />
    <path d="M4220 2830 c0 -7 3 -10 7 -7 3 4 3 10 0 14 -4 3 -7 0 -7 -7z" />
    <path d="M4321 2824 l1 -19 5 13 c3 7 2 16 -1 19 -3 4 -6 -2 -5 -13z" />
    <path d="M4232 2770 c0 -14 2 -19 5 -12 2 6 2 18 0 25 -3 6 -5 1 -5 -13z" />
    <path d="M4300 2720 c0 -7 3 -10 7 -7 3 4 3 10 0 14 -4 3 -7 0 -7 -7z" />
    <path d="M4614 2625 c0 -60 1 -84 3 -52 2 32 2 81 0 110 -2 29 -3 3 -3 -58z" />
    <path d="M4242 2665 l0 -30 5 18 c2 9 2 23 0 30 -3 6 -5 -1 -5 -18z" />
    <path d="M4291 2644 l1 -19 5 13 c3 7 2 16 -1 19 -3 4 -6 -2 -5 -13z" />
    <path d="M4253 2530 c0 -25 2 -35 4 -22 2 12 2 32 0 45 -2 12 -4 2 -4 -23z" />
    <path d="M4282 2520 c0 -19 2 -27 5 -17 2 9 2 25 0 35 -3 9 -5 1 -5 -18z" />
    <path d="M4600 2400 c0 -7 3 -10 7 -7 3 4 3 10 0 14 -4 3 -7 0 -7 -7z" />
    <path d="M4264 2280 c0 -52 1 -74 3 -47 2 26 2 68 0 95 -2 26 -3 4 -3 -48z" />
    <path d="M4282 2325 l0 -30 5 18 c2 9 2 23 0 30 -3 6 -5 -1 -5 -18z" />
    <path d="M4290 2240 c0 -7 3 -10 7 -7 3 4 3 10 0 14 -4 3 -7 0 -7 -7z" />
    <path d="M4300 2190 c0 -7 3 -10 7 -7 3 4 3 10 0 14 -4 3 -7 0 -7 -7z" />
    <path d="M1373 1523 c4 -3 10 -3 14 0 3 4 0 7 -7 7 -7 0 -10 -3 -7 -7z" />
    <path d="M1343 1513 c4 -3 10 -3 14 0 3 4 0 7 -7 7 -7 0 -10 -3 -7 -7z" />
    <path d="M1513 1513 c4 -3 10 -3 14 0 3 4 0 7 -7 7 -7 0 -10 -3 -7 -7z" />
    <path d="M1313 1503 c4 -3 10 -3 14 0 3 4 0 7 -7 7 -7 0 -10 -3 -7 -7z" />
    <path d="M1398 1503 c6 -2 18 -2 25 0 6 3 1 5 -13 5 -14 0 -19 -2 -12 -5z" />
    <path d="M1458 1503 c7 -3 16 -2 19 1 4 3 -2 6 -13 5 l-19 -1 13 -5z" />
    <path d="M1353 1493 c4 -3 10 -3 14 0 3 4 0 7 -7 7 -7 0 -10 -3 -7 -7z" />
    <path d="M1274 1478 l-7 -11 11 7 c7 4 12 9 12 12 0 8 -9 4 -16 -8z" />
    <path d="M1254 1428 l-29 -33 33 29 c30 28 37 36 29 36 -2 0 -16 -15 -33 -32z" />
    <path d="M1635 1440 c3 -5 8 -10 11 -10 3 0 2 5 -1 10 -3 6 -8 10 -11 10 -3 0
-2 -4 1 -10z" />
    <path d="M1323 1423 c4 -3 10 -3 14 0 3 4 0 7 -7 7 -7 0 -10 -3 -7 -7z" />
    <path d="M1530 1426 c0 -2 9 -6 20 -9 l20 -5 -6 9 c-5 9 -34 13 -34 5z" />
    <path d="M1194 1388 l-7 -11 11 7 c12 7 16 16 8 16 -3 0 -8 -5 -12 -12z" />
    <path d="M1580 1396 c0 -2 8 -10 18 -17 l17 -14 -14 18 c-13 16 -21 21 -21 13z" />
    <path d="M1310 1380 c0 -7 3 -10 7 -7 3 4 3 10 0 14 -4 3 -7 0 -7 -7z" />
    <path d="M1552 1258 l2 -133 3 128 4 129 17 -14 17 -13 -14 18 c-7 9 -17 17
-22 17 l-9 0 2 -132z" />
    <path d="M1615 1350 c3 -5 8 -10 11 -10 3 0 2 5 -1 10 -3 6 -8 10 -11 10 -3 0
-2 -4 1 -10z" />
    <path d="M1244 1338 l-7 -11 11 7 c12 7 16 16 8 16 -3 0 -8 -5 -12 -12z" />
    <path d="M1343 1333 c4 -3 10 -3 14 0 3 4 0 7 -7 7 -7 0 -10 -3 -7 -7z" />
    <path d="M1600 1320 c0 -7 3 -10 7 -7 3 4 3 10 0 14 -4 3 -7 0 -7 -7z" />
    <path d="M1701 1314 l1 -19 5 13 c3 7 2 16 -1 19 -3 4 -6 -2 -5 -13z" />
    <path d="M1190 1310 c0 -7 3 -10 7 -7 3 4 3 10 0 14 -4 3 -7 0 -7 -7z" />
    <path d="M1260 1310 c0 -7 3 -10 7 -7 3 4 3 10 0 14 -4 3 -7 0 -7 -7z" />
    <path d="M1630 1310 c0 -7 3 -10 7 -7 3 4 3 10 0 14 -4 3 -7 0 -7 -7z" />
    <path d="M1230 1300 c0 -7 3 -10 7 -7 3 4 3 10 0 14 -4 3 -7 0 -7 -7z" />
    <path d="M1343 1303 c4 -3 10 -3 14 0 3 4 0 7 -7 7 -7 0 -10 -3 -7 -7z" />
    <path d="M1610 1290 c0 -7 3 -10 7 -7 3 4 3 10 0 14 -4 3 -7 0 -7 -7z" />
    <path d="M1680 1290 c0 -7 3 -10 7 -7 3 4 3 10 0 14 -4 3 -7 0 -7 -7z" />
    <path d="M1162 1255 l0 -30 5 18 c2 9 2 23 0 30 -3 6 -5 -1 -5 -18z" />
    <path d="M1182 1255 l0 -30 5 18 c2 9 2 23 0 30 -3 6 -5 -1 -5 -18z" />
    <path d="M1681 1224 l1 -19 5 13 c3 7 2 16 -1 19 -3 4 -6 -2 -5 -13z" />
    <path d="M1610 1220 c0 -7 3 -10 7 -7 3 4 3 10 0 14 -4 3 -7 0 -7 -7z" />
    <path d="M1230 1210 c0 -7 3 -10 7 -7 3 4 3 10 0 14 -4 3 -7 0 -7 -7z" />
    <path d="M1260 1200 c0 -7 3 -10 7 -7 3 4 3 10 0 14 -4 3 -7 0 -7 -7z" />
    <path d="M1388 1203 c29 -2 74 -2 100 0 26 2 2 3 -53 3 -55 0 -76 -1 -47 -3z" />
    <path d="M1630 1200 c0 -7 3 -10 7 -7 3 4 3 10 0 14 -4 3 -7 0 -7 -7z" />
    <path d="M1700 1200 c0 -7 3 -10 7 -7 3 4 3 10 0 14 -4 3 -7 0 -7 -7z" />
    <path d="M1600 1190 c0 -7 3 -10 7 -7 3 4 3 10 0 14 -4 3 -7 0 -7 -7z" />
    <path d="M1170 1180 c0 -7 3 -10 7 -7 3 4 3 10 0 14 -4 3 -7 0 -7 -7z" />
    <path d="M1200 1170 c0 -7 3 -10 7 -7 3 4 3 10 0 14 -4 3 -7 0 -7 -7z" />
    <path d="M1616 1163 l-7 -18 12 12 c7 7 10 15 7 18 -3 3 -9 -2 -12 -12z" />
    <path d="M1690 1170 c0 -7 3 -10 7 -7 3 4 3 10 0 14 -4 3 -7 0 -7 -7z" />
    <path d="M1290 1146 c0 -2 7 -9 15 -16 l15 -12 0 10 c0 5 -7 12 -15 16 -8 3
-15 4 -15 2z" />
    <path d="M1579 1113 l-24 -28 28 24 c25 23 32 31 24 31 -2 0 -14 -12 -28 -27z" />
    <path d="M1250 1085 c13 -14 26 -25 28 -25 3 0 -5 11 -18 25 -13 14 -26 25
-28 25 -3 0 5 -11 18 -25z" />
    <path d="M1654 1098 l-7 -11 11 7 c12 7 16 16 8 16 -3 0 -8 -5 -12 -12z" />
    <path d="M1210 1096 c0 -2 8 -10 18 -17 l17 -14 -14 18 c-13 16 -21 21 -21 13z" />
    <path d="M1594 1068 l-7 -11 11 7 c12 7 16 16 8 16 -3 0 -8 -5 -12 -12z" />
    <path d="M1619 1053 l-14 -18 18 14 c16 13 21 21 13 21 -2 0 -10 -8 -17 -17z" />
    <path d="M1250 1056 c0 -2 8 -10 18 -17 l17 -14 -14 18 c-13 16 -21 21 -21 13z" />
    <path d="M1584 1028 l-7 -11 11 7 c12 7 16 16 8 16 -3 0 -8 -5 -12 -12z" />
    <path d="M1295 1020 c3 -5 8 -10 11 -10 3 0 2 5 -1 10 -3 6 -8 10 -11 10 -3 0
-2 -4 1 -10z" />
    <path d="M1363 1013 c4 -3 10 -3 14 0 3 4 0 7 -7 7 -7 0 -10 -3 -7 -7z" />
    <path d="M1323 1003 c4 -3 10 -3 14 0 3 4 0 7 -7 7 -7 0 -10 -3 -7 -7z" />
    <path d="M1428 1003 c6 -2 18 -2 25 0 6 3 1 5 -13 5 -14 0 -19 -2 -12 -5z" />
    <path d="M1353 993 c4 -3 10 -3 14 0 3 4 0 7 -7 7 -7 0 -10 -3 -7 -7z" />
    <path d="M1503 993 c4 -3 10 -3 14 0 3 4 0 7 -7 7 -7 0 -10 -3 -7 -7z" />
    <path d="M1393 983 c4 -3 10 -3 14 0 3 4 0 7 -7 7 -7 0 -10 -3 -7 -7z" />
  </g>
  <g transform="translate(0.000000,511.000000) scale(0.100000,-0.100000)" fill="#daacb0" stroke="none">
    <path d="M934 4238 l-7 -11 11 7 c7 4 12 9 12 12 0 8 -9 4 -16 -8z" />
    <path d="M4015 4130 c3 -5 8 -10 11 -10 3 0 2 5 -1 10 -3 6 -8 10 -11 10 -3 0
-2 -4 1 -10z" />
    <path d="M794 4098 l-7 -11 11 7 c7 4 12 9 12 12 0 8 -9 4 -16 -8z" />
    <path d="M1428 1503 c6 -2 18 -2 25 0 6 3 1 5 -13 5 -14 0 -19 -2 -12 -5z" />
    <path d="M1234 1448 l-7 -11 11 7 c12 7 16 16 8 16 -3 0 -8 -5 -12 -12z" />
    <path d="M1264 1438 l-7 -11 11 7 c12 7 16 16 8 16 -3 0 -8 -5 -12 -12z" />
    <path d="M1284 1398 l-19 -23 23 19 c21 18 27 26 19 26 -2 0 -12 -10 -23 -22z" />
    <path d="M2364 1408 l-7 -11 11 7 c7 4 12 9 12 12 0 8 -9 4 -16 -8z" />
    <path d="M2585 1410 c3 -5 8 -10 11 -10 3 0 2 5 -1 10 -3 6 -8 10 -11 10 -3 0
-2 -4 1 -10z" />
    <path d="M2920 1416 c0 -2 8 -10 18 -17 l17 -14 -14 18 c-13 16 -21 21 -21 13z" />
    <path d="M3034 1408 l-7 -11 11 7 c12 7 16 16 8 16 -3 0 -8 -5 -12 -12z" />
    <path d="M1308 1255 c-2 -69 0 -125 5 -125 4 0 7 56 7 125 0 69 -2 125 -4 125
-3 0 -6 -56 -8 -125z" />
    <path d="M2072 1330 c0 -19 2 -27 5 -17 2 9 2 25 0 35 -3 9 -5 1 -5 -18z" />
    <path d="M2468 1353 c6 -2 18 -2 25 0 6 3 1 5 -13 5 -14 0 -19 -2 -12 -5z" />
    <path d="M3133 1353 c4 -3 10 -3 14 0 3 4 0 7 -7 7 -7 0 -10 -3 -7 -7z" />
    <path d="M3190 1346 c0 -2 8 -10 18 -17 l17 -14 -14 18 c-13 16 -21 21 -21 13z" />
    <path d="M1393 1333 c26 -2 68 -2 95 0 26 2 4 3 -48 3 -52 0 -74 -1 -47 -3z" />
    <path d="M2170 1330 c0 -7 3 -10 7 -7 3 4 3 10 0 14 -4 3 -7 0 -7 -7z" />
    <path d="M1393 1303 c26 -2 68 -2 95 0 26 2 4 3 -48 3 -52 0 -74 -1 -47 -3z" />
    <path d="M2249 1293 l-14 -18 18 14 c9 7 17 15 17 17 0 8 -8 3 -21 -13z" />
    <path d="M2640 1300 c0 -7 3 -10 7 -7 3 4 3 10 0 14 -4 3 -7 0 -7 -7z" />
    <path d="M2980 1300 c0 -7 3 -10 7 -7 3 4 3 10 0 14 -4 3 -7 0 -7 -7z" />
    <path d="M1160 1280 c0 -7 3 -10 7 -7 3 4 3 10 0 14 -4 3 -7 0 -7 -7z" />
    <path d="M1682 1260 c0 -19 2 -27 5 -17 2 9 2 25 0 35 -3 9 -5 1 -5 -18z" />
    <path d="M2402 1260 c0 -19 2 -27 5 -17 2 9 2 25 0 35 -3 9 -5 1 -5 -18z" />
    <path d="M2550 1280 c0 -7 3 -10 7 -7 3 4 3 10 0 14 -4 3 -7 0 -7 -7z" />
    <path d="M3072 1260 c0 -14 2 -19 5 -12 2 6 2 18 0 25 -3 6 -5 1 -5 -13z" />
    <path d="M2550 1240 c0 -7 3 -10 7 -7 3 4 3 10 0 14 -4 3 -7 0 -7 -7z" />
    <path d="M1160 1230 c0 -7 3 -10 7 -7 3 4 3 10 0 14 -4 3 -7 0 -7 -7z" />
    <path d="M2980 1220 c0 -7 3 -10 7 -7 3 4 3 10 0 14 -4 3 -7 0 -7 -7z" />
    <path d="M2073 1185 l0 -40 4 23 c2 12 2 30 0 40 -3 9 -5 -1 -4 -23z" />
    <path d="M2180 1190 c0 -7 3 -10 7 -7 3 4 3 10 0 14 -4 3 -7 0 -7 -7z" />
    <path d="M2524 1178 l-7 -11 11 7 c12 7 16 16 8 16 -3 0 -8 -5 -12 -12z" />
    <path d="M2473 1153 c4 -3 10 -3 14 0 3 4 0 7 -7 7 -7 0 -10 -3 -7 -7z" />
    <path d="M1323 1083 c4 -3 10 -3 14 0 3 4 0 7 -7 7 -7 0 -10 -3 -7 -7z" />
    <path d="M1533 1083 c4 -3 10 -3 14 0 3 4 0 7 -7 7 -7 0 -10 -3 -7 -7z" />
    <path d="M2033 1073 c26 -2 68 -2 95 0 26 2 4 3 -48 3 -52 0 -74 -1 -47 -3z" />
    <path d="M3353 1073 c15 -2 37 -2 50 0 12 2 0 4 -28 4 -27 0 -38 -2 -22 -4z" />
    <path d="M3558 1073 c12 -2 32 -2 45 0 12 2 2 4 -23 4 -25 0 -35 -2 -22 -4z" />
    <path d="M1584 1058 l-7 -11 11 7 c12 7 16 16 8 16 -3 0 -8 -5 -12 -12z" />
  </g>
</svg>